# Alias OBJ Model File
# Exported from SketchUp, (c) 2000-2012 Trimble Navigation Limited
# File units = meters

mtllib frog.mtl

g Mesh1 Model

usemtl Color_Green
v 1.2 0.8 0.5
vt -47.2441 31.4961
vn 0 0 -1
v 1.4 0 0.5
vt -55.1181 0
v 1.2 0 0.5
vt -47.2441 0
f 1/1/1 2/2/1 3/3/1

v 1.4 0.8 0.5
vt -55.1181 31.4961
f 2/2/1 1/1/1 4/4/1

vt 47.2441 -19.685
vn 0 1 -0
v 1.4 0.8 0.7
vt 55.1181 -27.5591
vt 55.1181 -19.685
f 1/5/2 5/6/2 4/7/2

v 1 0.8 0.5
vt 39.3701 -19.685
f 6/8/2 5/6/2 1/5/2

v 1 0.8 0.7
vt 39.3701 -27.5591
f 5/6/2 6/8/2 7/9/2

vt 19.685 31.4961
vn -1 0 -0
v 1 0.1 0.7
vt 27.5591 3.93701
vt 27.5591 31.4961
f 6/10/3 8/11/3 7/12/3

v 1 0 0.5
vt 19.685 0
f 9/13/3 8/11/3 6/10/3

v 1 0 0.9
vt 35.4331 0
f 10/14/3 8/11/3 9/13/3

v 1 0.1 0.9
vt 35.4331 3.93701
f 8/11/3 10/14/3 11/15/3

vt 39.3701 0
vn 0 0 1
v 1.4 0.1 0.9
vt 55.1181 3.93701
vt 39.3701 3.93701
f 10/16/4 12/17/4 11/18/4

v 1.4 0 0.9
vt 55.1181 0
f 12/17/4 10/16/4 13/19/4

vt -39.3701 -35.4331
vn 0 -1 -0
vt -47.2441 -19.685
vt -55.1181 -35.4331
f 10/20/5 3/21/5 13/22/5

v 1.2 0 -0
f 10/20/5 14/3/5 3/21/5

vt -39.3701 -19.685
f 9/23/5 14/3/5 10/20/5

v 1 0 -0
vt -39.3701 0
f 9/23/5 15/24/5 14/3/5

v 0.8 0 0.5
vt -31.4961 -19.685
f 16/25/5 15/24/5 9/23/5

v -0.1 0 0.6
vt 3.93701 -23.622
f 17/26/5 15/24/5 16/25/5

v -0.1 0 -0
vt 3.93701 0
f 15/24/5 17/26/5 18/27/5

vt 23.622 0
v -0.1 0.3 -0.6
vt -23.622 11.811
vt 0 0
f 17/28/3 19/29/3 18/30/3

v -0.1 0.3 0.6
vt 23.622 11.811
f 19/29/3 17/28/3 20/31/3

vt -3.93701 0
v 0.8 0.3 0.6
vt 31.4961 11.811
vt -3.93701 11.811
f 17/32/4 21/33/4 20/34/4

v 0.8 0 0.6
vt 31.4961 0
f 21/33/4 17/32/4 22/35/4

vt -31.4961 -23.622
f 22/36/5 17/26/5 16/25/5

vt -19.685 0
vn 1 0 -0
vt -23.622 0
f 16/37/6 21/29/6 22/38/6

v 0.8 0.3 0.5
vt -19.685 11.811
f 21/29/6 16/37/6 23/39/6

vt 39.3701 31.4961
f 16/35/4 6/40/4 23/33/4

f 6/40/4 16/35/4 9/16/4

v 0 0.3 0.5
vt 0 11.811
f 23/33/4 6/40/4 24/41/4

v 0.4 0.6 0.5
vt 15.748 23.622
f 24/41/4 6/40/4 25/42/4

v 0.4 0.9 0.5
vt 15.748 35.4331
f 25/42/4 6/40/4 26/43/4

v 1.2 1 0.5
vt 47.2441 39.3701
f 6/40/4 27/44/4 26/43/4

vt 47.2441 31.4961
f 27/44/4 6/40/4 1/45/4

vt -19.685 31.4961
vt -19.685 39.3701
f 1/46/6 14/30/6 27/47/6

f 14/30/6 1/46/6 3/37/6

v 1.2 1 -0
vt 0 39.3701
f 27/47/6 14/30/6 28/48/6

v 1.2 0.1 -0
vt 0 3.93701
f 28/48/6 14/30/6 29/49/6

vt 47.2441 3.93701
vt 47.2441 0
f 29/50/4 15/16/4 14/51/4

v 1 0.1 -0
f 15/16/4 29/50/4 30/18/4

v 1.2 0 -0.5
vt -47.2441 19.685
f 14/3/5 15/24/5 31/52/5

v 1 0 -0.5
vt -39.3701 19.685
f 32/53/5 31/52/5 15/24/5

v 1.4 0 -0.9
vt -55.1181 35.4331
f 32/53/5 33/54/5 31/52/5

v 1 0 -0.9
vt -39.3701 35.4331
f 33/54/5 32/53/5 34/55/5

v 1 0.1 -0.7
vt -27.5591 3.93701
vt -35.4331 0
f 32/37/3 35/56/3 34/57/3

v 1 0.8 -0.7
vt -27.5591 31.4961
f 32/37/3 36/58/3 35/56/3

v 1 0.8 -0.5
f 36/58/3 32/37/3 37/46/3

v 0.8 0.3 -0.5
vt -31.4961 11.811
vt -39.3701 31.4961
f 32/24/1 38/59/1 37/60/1

v 0.8 0 -0.5
vt -31.4961 0
f 38/59/1 32/24/1 39/61/1

vt -31.4961 19.685
f 15/24/5 39/62/5 32/53/5

f 18/27/5 39/62/5 15/24/5

v 0.8 0 -0.6
vt -31.4961 23.622
f 18/27/5 40/63/5 39/62/5

v -0.1 0 -0.6
vt 3.93701 23.622
f 40/63/5 18/27/5 41/64/5

f 18/30/3 19/29/3 41/38/3

vt 3.93701 11.811
f 19/65/1 40/61/1 41/27/1

v 0.8 0.3 -0.6
f 40/61/1 19/65/1 42/59/1

vt -3.93701 23.622
v 0 0.3 -0.5
vt 0 19.685
vt 31.4961 23.622
f 19/66/2 43/67/2 42/68/2

vt 0 -19.685
f 43/67/2 19/66/2 24/69/2

vt -3.93701 -23.622
f 20/70/2 24/69/2 19/66/2

vt 31.4961 -23.622
f 24/69/2 20/70/2 21/71/2

vt 31.4961 -19.685
f 24/69/2 21/71/2 23/72/2

vt 19.685 11.811
v 0 0.45 0.2
vt 7.87402 17.7165
f 24/73/3 44/74/3 43/39/3

v 0 0.55 0.2
vt 7.87402 21.6535
f 44/74/3 24/73/3 45/75/3

v 0 1 0.5
vt 19.685 39.3701
f 46/76/3 45/75/3 24/73/3

v 0 1 -0.5
f 45/75/3 46/76/3 47/47/3

f 27/5/2 47/67/2 46/69/2

v 1.2 1 -0.5
vt 47.2441 19.685
f 47/67/2 27/5/2 48/77/2

f 48/77/2 27/5/2 28/51/2

f 28/48/6 31/13/6 48/76/6

f 29/49/6 31/13/6 28/48/6

f 31/13/6 29/49/6 14/30/6

v 1.2 0.8 -0.5
f 48/76/6 31/13/6 49/10/6

v 1.4 0.8 -0.5
vt 55.1181 31.4961
f 31/51/4 50/78/4 49/45/4

v 1.4 0 -0.5
f 50/78/4 31/51/4 51/19/4

vt -55.1181 19.685
f 31/52/5 33/54/5 51/79/5

v 1.4 0.1 -0.7
f 52/11/6 51/13/6 33/14/6

f 51/13/6 52/11/6 50/10/6

v 1.4 0.8 -0.7
f 53/12/6 50/10/6 52/11/6

vt 55.1181 27.5591
vt 55.1181 19.685
f 53/80/2 49/77/2 50/81/2

vt 39.3701 27.5591
f 36/82/2 49/77/2 53/80/2

vt 39.3701 19.685
f 49/77/2 36/82/2 37/83/2

v 0.4 0.9 -0.5
vt -15.748 35.4331
f 37/60/1 54/84/1 49/1/1

v 0.4 0.6 -0.5
vt -15.748 23.622
f 37/60/1 55/85/1 54/84/1

f 37/60/1 38/59/1 55/85/1

v 0.1 0.6 -0.5
f 55/85/1 38/59/1 56/66/1

f 43/41/1 56/66/1 38/59/1

f 56/66/1 43/41/1 47/48/1

v 0 0.45 -0.2
vt -7.87402 17.7165
f 43/39/3 57/86/3 47/47/3

v 0 0.45 -0.15
vt -5.90551 17.7165
f 43/39/3 58/87/3 57/86/3

v 0 0.45 0.15
vt 5.90551 17.7165
f 43/39/3 59/88/3 58/87/3

f 43/39/3 44/74/3 59/88/3

v 0.05 0.45 0.2
vt 1.9685 -7.87402
vt 0 -5.90551
vt 0 -7.87402
f 60/89/2 59/90/2 44/91/2

v 0.05 0.45 0.15
vt 1.9685 -5.90551
f 59/90/2 60/89/2 61/92/2

v 0.05 0.55 0.15
vt 5.90551 21.6535
f 60/74/3 62/93/3 61/88/3

v 0.05 0.55 0.2
f 62/93/3 60/74/3 63/75/3

vt -1.9685 17.7165
vt 0 21.6535
vt -1.9685 21.6535
f 60/94/1 45/95/1 63/96/1

vt 0 17.7165
f 45/95/1 60/94/1 44/97/1

vt -1.9685 -5.90551
vt -1.9685 -7.87402
f 45/91/5 62/98/5 63/99/5

v 0 0.55 0.15
f 62/98/5 45/91/5 64/90/5

f 45/75/3 47/47/3 64/93/3

f 64/93/3 47/47/3 59/88/3

v 0 0.55 -0.15
vt -5.90551 21.6535
f 59/88/3 47/47/3 65/100/3

v 0 0.55 -0.2
vt -7.87402 21.6535
f 65/100/3 47/47/3 66/101/3

f 66/101/3 47/47/3 57/86/3

v 0.05 0.55 -0.2
vt 1.9685 21.6535
f 57/97/4 67/102/4 66/95/4

v 0.05 0.45 -0.2
vt 1.9685 17.7165
f 67/102/4 57/97/4 68/103/4

vt 0 7.87402
v 0.05 0.45 -0.15
vt 1.9685 5.90551
vt 1.9685 7.87402
f 57/104/2 69/105/2 68/106/2

vt 0 5.90551
f 69/105/2 57/104/2 58/107/2

f 65/95/1 69/94/1 58/97/1

v 0.05 0.55 -0.15
f 69/94/1 65/95/1 70/96/1

vt -1.9685 7.87402
vt -1.9685 5.90551
f 65/107/5 67/108/5 70/109/5

f 67/108/5 65/107/5 66/104/5

f 67/101/3 69/87/3 70/100/3

f 69/87/3 67/101/3 68/86/3

f 58/87/3 59/88/3 65/100/3

f 59/97/4 62/102/4 64/95/4

f 62/102/4 59/97/4 61/103/4

v 0.1 0.9 -0.5
vt -3.93701 35.4331
f 56/66/1 47/48/1 71/110/1

f 71/110/1 47/48/1 54/84/1

vt -47.2441 39.3701
f 48/111/1 54/84/1 47/48/1

f 49/1/1 54/84/1 48/111/1

vt 15.748 19.685
v 0.1 0.9 -0.6
vt 3.93701 19.685
f 54/112/2 72/64/2 71/113/2

v 0.4 0.9 -0.6
f 72/64/2 54/112/2 73/42/2

vt 19.685 35.4331
v 0.4 0.6 -0.6
vt 23.622 23.622
vt 23.622 35.4331
f 54/114/6 74/115/6 73/116/6

vt 19.685 23.622
f 74/115/6 54/114/6 55/117/6

f 55/85/1 71/110/1 54/84/1

f 71/110/1 55/85/1 56/66/1

vt -3.93701 19.685
vt -15.748 19.685
f 56/118/5 74/85/5 55/119/5

v 0.1 0.6 -0.6
f 74/85/5 56/118/5 75/66/5

vt -19.685 23.622
vt -23.622 35.4331
vt -23.622 23.622
f 56/120/3 72/121/3 75/122/3

vt -19.685 35.4331
f 72/121/3 56/120/3 71/123/3

v 0.15 0.65 -0.6
vt -5.90551 25.5906
f 76/124/1 75/66/1 72/110/1

f 75/66/1 76/124/1 74/85/1

v 0.35 0.65 -0.6
vt -13.7795 25.5906
f 77/125/1 74/85/1 76/124/1

f 74/85/1 77/125/1 73/84/1

v 0.35 0.85 -0.6
vt -13.7795 33.4646
f 73/84/1 77/125/1 78/126/1

v 0.35 0.65 -0.65
vt 25.5906 25.5906
vt 23.622 33.4646
vt 23.622 25.5906
f 79/127/6 78/128/6 77/129/6

v 0.35 0.85 -0.65
vt 25.5906 33.4646
f 78/128/6 79/127/6 80/130/6

v 0.25 0.75 -0.65
vt -9.84252 29.5276
f 79/125/1 81/131/1 80/126/1

v 0.15 0.75 -0.65
vt -5.90551 29.5276
f 79/125/1 82/132/1 81/131/1

v 0.15 0.65 -0.65
f 82/132/1 79/125/1 83/124/1

vt -5.90551 23.622
f 79/125/5 76/133/5 83/124/5

vt -13.7795 23.622
f 76/133/5 79/125/5 77/134/5

vt -23.622 25.5906
vt -25.5906 29.5276
vt -25.5906 25.5906
f 76/135/3 82/136/3 83/137/3

v 0.15 0.75 -0.6
vt -23.622 29.5276
f 82/136/3 76/135/3 84/138/3

f 76/124/1 72/110/1 84/132/1

v 0.25 0.75 -0.6
f 84/132/1 72/110/1 85/131/1

v 0.25 0.85 -0.6
vt -9.84252 33.4646
f 85/131/1 72/110/1 86/139/1

f 86/139/1 72/110/1 78/126/1

f 73/84/1 78/126/1 72/110/1

vt 13.7795 23.622
v 0.25 0.85 -0.65
vt 9.84252 25.5906
vt 9.84252 23.622
f 78/140/2 87/141/2 86/142/2

vt 13.7795 25.5906
f 87/141/2 78/140/2 80/143/2

f 80/126/1 81/131/1 87/139/1

vt -25.5906 33.4646
f 85/138/3 87/144/3 81/136/3

vt -23.622 33.4646
f 87/144/3 85/138/3 86/145/3

vt 5.90551 25.5906
f 82/146/2 85/142/2 81/141/2

vt 5.90551 23.622
f 85/142/2 82/146/2 84/147/2

vt 31.4961 19.685
f 42/68/2 43/67/2 38/148/2

f 38/73/6 40/28/6 42/31/6

f 40/28/6 38/73/6 39/13/6

vt -55.1181 3.93701
f 52/149/1 36/60/1 53/4/1

vt -39.3701 3.93701
f 36/60/1 52/149/1 35/150/1

v 1 0.1 -0.9
vt 39.3701 35.4331
f 52/80/2 88/151/2 35/82/2

v 1.4 0.1 -0.9
vt 55.1181 35.4331
f 88/151/2 52/80/2 89/152/2

f 52/11/6 33/14/6 89/15/6

f 33/2/1 88/150/1 89/149/1

f 88/150/1 33/2/1 34/24/1

vt -35.4331 3.93701
f 34/57/3 35/56/3 88/153/3

v 0.1 0.9 0.5
vt 3.93701 35.4331
f 46/48/4 90/154/4 27/44/4

v 0.1 0.6 0.5
f 46/48/4 91/64/4 90/154/4

f 24/41/4 91/64/4 46/48/4

f 91/64/4 24/41/4 25/42/4

f 26/43/4 91/64/4 25/42/4

f 91/64/4 26/43/4 90/154/4

usemtl Color_White
vt 3.93701 -19.685
v 0.4 0.9 0.6
vt 15.748 -23.622
vt 15.748 -19.685
f 90/155/2 92/156/2 26/157/2

v 0.1 0.9 0.6
f 92/156/2 90/155/2 93/26/2

v 0.1 0.6 0.6
f 90/114/3 94/115/3 93/116/3

f 94/115/3 90/114/3 91/117/3

vt -15.748 -19.685
vt -3.93701 -19.685
f 25/158/5 94/70/5 91/159/5

v 0.4 0.6 0.6
vt -15.748 -23.622
f 94/70/5 25/158/5 95/160/5

f 25/120/6 92/121/6 95/122/6

f 92/121/6 25/120/6 26/123/6

v 0.35 0.65 0.6
f 96/143/4 95/42/4 92/43/4

f 95/42/4 96/143/4 94/64/4

v 0.15 0.65 0.6
f 97/146/4 94/64/4 96/143/4

f 94/64/4 97/146/4 93/154/4

v 0.15 0.75 0.6
vt 5.90551 29.5276
f 93/154/4 97/146/4 98/161/4

usemtl Color_Black
v 0.15 0.65 0.65
vt 23.622 29.5276
f 99/127/3 98/162/3 97/129/3

v 0.15 0.75 0.65
vt 25.5906 29.5276
f 98/162/3 99/127/3 100/163/3

v 0.25 0.75 0.65
vt 9.84252 29.5276
f 100/161/4 99/146/4 101/164/4

v 0.35 0.85 0.65
vt 13.7795 33.4646
f 99/146/4 102/165/4 101/164/4

v 0.35 0.65 0.65
f 102/165/4 99/146/4 103/143/4

vt -5.90551 -25.5906
vt -13.7795 -23.622
vt -13.7795 -25.5906
f 99/166/5 96/167/5 103/168/5

vt -5.90551 -23.622
f 96/167/5 99/166/5 97/169/5

f 96/135/6 102/144/6 103/137/6

v 0.35 0.85 0.6
f 102/144/6 96/135/6 104/145/6

usemtl Color_White
f 96/143/4 92/43/4 104/165/4

v 0.25 0.85 0.6
vt 9.84252 33.4646
f 104/165/4 92/43/4 105/170/4

f 93/154/4 105/170/4 92/43/4

f 93/154/4 98/161/4 105/170/4

v 0.25 0.75 0.6
f 105/170/4 98/161/4 106/164/4

usemtl Color_Black
vt 5.90551 -23.622
vt 9.84252 -25.5906
vt 9.84252 -23.622
f 98/171/2 101/172/2 106/173/2

vt 5.90551 -25.5906
f 101/172/2 98/171/2 100/174/2

f 101/163/3 105/128/3 106/162/3

v 0.25 0.85 0.65
f 105/128/3 101/163/3 107/130/3

f 101/164/4 102/165/4 107/170/4

vt 13.7795 -25.5906
f 102/175/2 105/173/2 107/172/2

vt 13.7795 -23.622
f 105/173/2 102/175/2 104/176/2

usemtl Color_Green
f 26/43/4 27/44/4 90/154/4

vt -55.1181 -19.685
f 13/22/5 3/21/5 2/177/5

f 2/37/6 12/153/6 13/57/6

v 1.4 0.1 0.7
f 12/153/6 2/37/6 108/56/6

f 108/56/6 2/37/6 5/58/6

f 5/58/6 2/37/6 4/46/6

f 5/78/4 8/18/4 108/17/4

f 8/18/4 5/78/4 7/40/4

vt 55.1181 -35.4331
f 8/9/2 12/178/2 108/6/2

vt 39.3701 -35.4331
f 12/178/2 8/9/2 11/179/2
