# Alias OBJ Model File
# Exported from SketchUp, (c) 2000-2012 Trimble Navigation Limited
# File units = meters

mtllib fly.mtl

g Mesh1 Group1 Model

usemtl Color_M00
v 0.45 0.15 -0.4
vt 11.811 0
vn 1 0 -0
v 0.45 0.35 -0.1
vt 0 7.87402
v 0.45 0.15 -0.1
vt 0 0
f 1/1/1 2/2/1 3/3/1

v 0.45 0.35 -0.4
vt 11.811 7.87402
f 2/2/1 1/1/1 4/4/1

vn 0 0 -1
v 0.25 0.35 -0.4
vt 7.87402 0
vt 7.87402 7.87402
f 1/2/2 5/5/2 4/6/2

v 0.25 0.15 -0.4
f 5/5/2 1/2/2 6/3/2

vn 0 -1 -0
v 0.25 0.15 -0.1
f 1/4/3 7/3/3 6/1/3

f 7/3/3 1/4/3 3/2/3

vt -7.87402 7.87402
vn 0 0 1
f 2/7/4 7/3/4 3/2/4

v 0.25 0.35 -0.1
vt -7.87402 0
f 7/3/4 2/7/4 8/8/4

vn 0 1 -0
vt -11.811 0
f 2/2/5 5/9/5 8/3/5

vt -11.811 7.87402
f 5/9/5 2/2/5 4/10/5

g Mesh2 Group2 Model

v -0.45 0.15 -0.1
vn -1 0 -0
v -0.45 0.35 -0.4
v -0.45 0.15 -0.4
f 9/1/6 10/2/6 11/3/6

v -0.45 0.35 -0.1
f 10/2/6 9/1/6 12/4/6

v -0.25 0.35 -0.1
f 9/2/4 13/5/4 12/6/4

v -0.25 0.15 -0.1
f 13/5/4 9/2/4 14/3/4

v -0.25 0.15 -0.4
f 9/4/3 15/3/3 14/1/3

f 15/3/3 9/4/3 11/2/3

f 10/7/2 15/3/2 11/2/2

v -0.25 0.35 -0.4
f 15/3/2 10/7/2 16/8/2

f 10/2/5 13/9/5 16/3/5

f 13/9/5 10/2/5 12/10/5

g Mesh3 Group3 Model

usemtl Color_M08
v -0.25 0.5 -0.5
vt -19.685 19.685
v -0.25 0 -0
v -0.25 0.5 -0
vt 0 19.685
f 17/11/6 18/3/6 19/12/6

v -0.25 0 -0.5
vt -19.685 0
f 18/3/6 17/11/6 20/13/6

v 0.25 0 -0.5
f 17/12/2 21/13/2 20/3/2

v 0.25 0.5 -0.5
f 21/13/2 17/12/2 22/11/2

v 0.25 0.5 -0
vt 19.685 0
vt 19.685 19.685
f 17/12/5 23/14/5 22/15/5

f 23/14/5 17/12/5 19/3/5

f 18/3/4 23/15/4 19/12/4

v 0.25 0 -0
f 23/15/4 18/3/4 24/14/4

f 18/3/3 21/11/3 24/13/3

f 21/11/3 18/3/3 20/12/3

f 21/14/1 23/12/1 24/3/1

f 23/12/1 21/14/1 22/15/1

