# Alias OBJ Model File
# Exported from SketchUp, (c) 2000-2012 Trimble Navigation Limited
# File units = meters

mtllib frog.mtl

g Mesh1 Group1 Model

usemtl Color_M00
v 0.1 0.9 0.5
vt -3.93701 11.811
vn -1 0 -0
v 0.1 0.6 0.6
vt 0 0
v 0.1 0.9 0.6
vt 0 11.811
f 1/1/1 2/2/1 3/3/1

v 0.1 0.6 0.5
vt -3.93701 0
f 2/2/1 1/1/1 4/4/1

v 0.4 0.6 0.5
vt -11.811 3.93701
vn 0 -1 -0
vt 0 3.93701
f 5/5/2 2/2/2 4/6/2

v 0.4 0.6 0.6
vt -11.811 0
f 2/2/2 5/5/2 6/7/2

vt 3.93701 0
vn 1 0 -0
v 0.4 0.9 0.6
f 5/8/3 7/3/3 6/2/3

v 0.4 0.9 0.5
vt 3.93701 11.811
f 7/3/3 5/8/3 8/9/3

vn 0 1 -0
vt 11.811 0
vt 11.811 3.93701
f 1/6/4 7/10/4 8/11/4

f 7/10/4 1/6/4 3/2/4

vn 0 0 1
v 0.25 0.85 0.6
vt 5.90551 9.84252
vt 11.811 11.811
f 3/3/5 9/12/5 7/13/5

v 0.15 0.75 0.6
vt 1.9685 5.90551
f 3/3/5 10/14/5 9/12/5

v 0.15 0.65 0.6
vt 1.9685 1.9685
f 3/3/5 11/15/5 10/14/5

f 2/2/5 11/15/5 3/3/5

v 0.35 0.65 0.6
vt 9.84252 1.9685
f 11/15/5 2/2/5 12/16/5

f 6/10/5 12/16/5 2/2/5

f 12/16/5 6/10/5 7/13/5

v 0.35 0.85 0.6
vt 9.84252 9.84252
f 12/16/5 7/13/5 13/17/5

f 13/17/5 7/13/5 9/12/5

v 0.25 0.75 0.6
vt 5.90551 5.90551
f 9/12/5 10/14/5 14/18/5

g Mesh2 Group2 Model

usemtl Color_M08
vt -7.87402 1.9685
v 0.15 0.65 0.65
vt 0 1.9685
f 12/19/2 15/2/2 11/20/2

v 0.35 0.65 0.65
vt -7.87402 0
f 15/2/2 12/19/2 16/21/2

vt 1.9685 0
v 0.35 0.85 0.65
vt 0 7.87402
f 12/22/3 17/23/3 16/2/3

vt 1.9685 7.87402
f 17/23/3 12/22/3 13/24/3

vt 3.93701 1.9685
vt 7.87402 0
vt 7.87402 1.9685
f 9/25/4 17/26/4 13/27/4

v 0.25 0.85 0.65
f 17/26/4 9/25/4 18/8/4

vt -1.9685 7.87402
v 0.25 0.75 0.65
f 9/28/1 19/6/1 18/23/1

vt -1.9685 3.93701
f 19/6/1 9/28/1 14/29/1

f 10/20/4 19/8/4 14/25/4

v 0.15 0.75 0.65
f 19/8/4 10/20/4 20/2/4

f 10/29/1 15/2/1 20/6/1

vt -1.9685 0
f 15/2/1 10/29/1 11/30/1

vt 3.93701 3.93701
f 20/6/5 15/2/5 19/31/5

vt 7.87402 7.87402
f 15/2/5 17/32/5 19/31/5

f 17/32/5 15/2/5 16/26/5

vt 3.93701 7.87402
f 19/31/5 17/32/5 18/33/5

g Mesh3 Group3 Model

usemtl Color_M00
v 0.1 0.9 -0.6
v 0.1 0.6 -0.5
v 0.1 0.9 -0.5
f 21/1/1 22/2/1 23/3/1

v 0.1 0.6 -0.6
f 22/2/1 21/1/1 24/4/1

v 0.15 0.65 -0.6
vt -1.9685 1.9685
vn 0 0 -1
f 25/34/6 24/2/6 21/3/6

v 0.4 0.6 -0.6
f 24/2/6 25/34/6 26/7/6

v 0.35 0.65 -0.6
vt -9.84252 1.9685
f 27/35/6 26/7/6 25/34/6

v 0.4 0.9 -0.6
vt -11.811 11.811
f 26/7/6 27/35/6 28/36/6

v 0.35 0.85 -0.6
vt -9.84252 9.84252
f 28/36/6 27/35/6 29/37/6

f 28/36/6 29/37/6 21/3/6

v 0.25 0.85 -0.6
vt -5.90551 9.84252
f 30/38/6 21/3/6 29/37/6

v 0.25 0.75 -0.6
vt -5.90551 5.90551
f 31/39/6 21/3/6 30/38/6

v 0.15 0.75 -0.6
vt -1.9685 5.90551
f 32/40/6 21/3/6 31/39/6

f 25/34/6 21/3/6 32/40/6

v 0.4 0.9 -0.5
f 21/6/4 33/10/4 28/11/4

f 33/10/4 21/6/4 23/2/4

f 33/3/3 26/8/3 28/9/3

v 0.4 0.6 -0.5
f 26/8/3 33/3/3 34/2/3

f 22/2/2 26/5/2 34/7/2

f 26/5/2 22/2/2 24/6/2

g Mesh4 Group4 Model

usemtl Color_M08
v 0.25 0.85 -0.65
f 35/28/1 31/6/1 30/23/1

v 0.25 0.75 -0.65
f 31/6/1 35/28/1 36/29/1

v 0.35 0.85 -0.65
vt -7.87402 7.87402
vt -3.93701 3.93701
vt -3.93701 7.87402
f 37/41/6 36/42/6 35/43/6

v 0.35 0.65 -0.65
f 38/21/6 36/42/6 37/41/6

v 0.15 0.75 -0.65
f 38/21/6 39/6/6 36/42/6

v 0.15 0.65 -0.65
f 39/6/6 38/21/6 40/2/6

f 38/19/2 25/2/2 40/20/2

f 25/2/2 38/19/2 27/21/2

f 38/22/3 29/23/3 27/2/3

f 29/23/3 38/22/3 37/24/3

f 35/25/4 29/26/4 37/27/4

f 29/26/4 35/25/4 30/8/4

f 25/2/1 39/29/1 40/30/1

f 39/29/1 25/2/1 32/6/1

f 31/8/4 39/20/4 32/2/4

f 39/20/4 31/8/4 36/25/4

g Mesh5 Model

usemtl _4
v -0.1 0.3 -0.6
v 0.8 0 -0.6
vt -31.4961 0
v -0.1 0 -0.6
f 41/9/6 42/44/6 43/8/6

v 0.8 0.3 -0.6
vt -31.4961 11.811
f 42/44/6 41/9/6 44/45/6

vt -3.93701 23.622
v 0 0.3 -0.5
vt 0 19.685
vt 31.4961 23.622
f 41/46/4 45/47/4 44/48/4

v 0 0.3 0.5
vt 0 -19.685
f 45/47/4 41/46/4 46/49/4

v -0.1 0.3 0.6
vt -3.93701 -23.622
f 47/50/4 46/49/4 41/46/4

v 0.8 0.3 0.6
vt 31.4961 -23.622
f 46/49/4 47/50/4 48/51/4

v -0.1 0 0.6
vt 31.4961 11.811
f 49/4/5 48/52/5 47/1/5

v 0.8 0 0.6
vt 31.4961 0
f 48/52/5 49/4/5 50/53/5

vt -31.4961 -23.622
vt 3.93701 -23.622
v 0.8 0 0.5
vt -31.4961 -19.685
f 50/54/2 49/55/2 51/56/2

v 1 0 -0
vt -39.3701 0
f 49/55/2 52/57/2 51/56/2

v -0.1 0 -0
f 52/57/2 49/55/2 53/8/2

vt 23.622 0
vt -23.622 11.811
f 49/58/1 41/59/1 53/2/1

vt 23.622 11.811
f 41/59/1 49/58/1 47/60/1

vt -23.622 0
f 53/2/1 41/59/1 43/61/1

vt -31.4961 23.622
vt 3.93701 23.622
f 42/62/2 53/8/2 43/63/2

v 0.8 0 -0.5
vt -31.4961 19.685
f 53/8/2 42/62/2 54/64/2

v 0.8 0.3 -0.5
vt 19.685 11.811
vt 19.685 0
f 42/58/3 55/65/3 54/66/3

f 55/65/3 42/58/3 44/60/3

vt 31.4961 19.685
f 44/48/4 45/47/4 55/67/4

f 45/3/6 22/46/6 55/45/6

v 0 1 -0.5
vt 0 39.3701
f 22/46/6 45/3/6 56/68/6

vt -19.685 11.811
v 0 0.45 -0.2
vt -7.87402 17.7165
vt -19.685 39.3701
f 45/69/1 57/70/1 56/71/1

v 0 0.45 -0.15
vt -5.90551 17.7165
f 45/69/1 58/72/1 57/70/1

v 0 0.45 0.15
vt 5.90551 17.7165
f 45/69/1 59/73/1 58/72/1

v 0 0.45 0.2
vt 7.87402 17.7165
f 45/69/1 60/74/1 59/73/1

f 46/65/1 60/74/1 45/69/1

v 0 0.55 0.2
vt 7.87402 21.6535
f 60/74/1 46/65/1 61/75/1

v 0 1 0.5
vt 19.685 39.3701
f 62/76/1 61/75/1 46/65/1

f 61/75/1 62/76/1 56/71/1

v 1.2 1 0.5
vt 47.2441 -19.685
f 63/77/4 56/47/4 62/49/4

v 1.2 1 -0.5
vt 47.2441 19.685
f 56/47/4 63/77/4 64/78/4

v 1.2 1 -0
vt 47.2441 0
f 64/78/4 63/77/4 65/79/4

v 1.2 0 -0
f 63/71/3 66/2/3 65/68/3

v 1.2 0.8 0.5
vt -19.685 31.4961
f 67/80/3 66/2/3 63/71/3

v 1.2 0 0.5
vt -19.685 0
f 66/2/3 67/80/3 68/81/3

vt -47.2441 31.4961
v 1.4 0 0.5
vt -55.1181 0
vt -47.2441 0
f 67/82/6 69/83/6 68/84/6

v 1.4 0.8 0.5
vt -55.1181 31.4961
f 69/83/6 67/82/6 70/85/6

v 1.4 0.8 0.7
vt 55.1181 -27.5591
vt 55.1181 -19.685
f 67/77/4 71/86/4 70/87/4

v 1 0.8 0.5
vt 39.3701 -19.685
f 72/88/4 71/86/4 67/77/4

v 1 0.8 0.7
vt 39.3701 -27.5591
f 71/86/4 72/88/4 73/89/4

vt 19.685 31.4961
v 1 0.1 0.7
vt 27.5591 3.93701
vt 27.5591 31.4961
f 72/90/1 74/91/1 73/92/1

v 1 0 0.5
f 75/66/1 74/91/1 72/90/1

v 1 0 0.9
vt 35.4331 0
f 76/93/1 74/91/1 75/66/1

v 1 0.1 0.9
vt 35.4331 3.93701
f 74/91/1 76/93/1 77/94/1

vt 39.3701 0
v 1.4 0.1 0.9
vt 55.1181 3.93701
vt 39.3701 3.93701
f 76/95/5 78/96/5 77/97/5

v 1.4 0 0.9
vt 55.1181 0
f 78/96/5 76/95/5 79/98/5

vt -39.3701 -35.4331
vt -47.2441 -19.685
vt -55.1181 -35.4331
f 76/99/2 68/100/2 79/101/2

f 76/99/2 66/84/2 68/100/2

vt -39.3701 -19.685
f 75/102/2 66/84/2 76/99/2

f 75/102/2 52/57/2 66/84/2

f 51/56/2 52/57/2 75/102/2

vt 39.3701 31.4961
f 72/103/5 51/53/5 75/95/5

v 0.8 0.3 0.5
f 51/53/5 72/103/5 80/52/5

f 80/52/5 72/103/5 46/3/5

vt 15.748 23.622
f 46/3/5 72/103/5 5/104/5

vt 15.748 35.4331
f 5/104/5 72/103/5 8/105/5

vt 47.2441 39.3701
f 72/103/5 63/106/5 8/105/5

vt 47.2441 31.4961
f 63/106/5 72/103/5 67/107/5

vt 3.93701 35.4331
f 8/105/5 63/106/5 1/108/5

f 62/68/5 1/108/5 63/106/5

f 62/68/5 4/63/5 1/108/5

f 46/3/5 4/63/5 62/68/5

f 4/63/5 46/3/5 5/104/5

f 8/105/5 4/63/5 5/104/5

f 4/63/5 8/105/5 1/108/5

vt 31.4961 -19.685
f 46/49/4 48/51/4 80/109/4

f 48/59/3 51/81/3 80/69/3

f 51/81/3 48/59/3 50/61/3

v 1.2 0 -0.5
vt -47.2441 19.685
f 66/84/2 52/57/2 81/110/2

v 1.2 0.1 -0
vt 47.2441 3.93701
f 82/111/5 52/95/5 66/79/5

v 1 0.1 -0
f 52/95/5 82/111/5 83/97/5

f 81/66/3 82/6/3 66/2/3

f 82/6/3 81/66/3 65/68/3

f 65/68/3 81/66/3 64/76/3

v 1.2 0.8 -0.5
f 64/76/3 81/66/3 84/90/3

v 1.4 0.8 -0.5
vt 55.1181 31.4961
f 81/79/5 85/112/5 84/107/5

v 1.4 0 -0.5
f 85/112/5 81/79/5 86/98/5

v 1.4 0 -0.9
vt -55.1181 35.4331
vt -55.1181 19.685
f 81/110/2 87/113/2 86/114/2

v 1 0 -0.5
vt -39.3701 19.685
f 88/115/2 87/113/2 81/110/2

v 1 0 -0.9
vt -39.3701 35.4331
f 87/113/2 88/115/2 89/116/2

v 1 0.1 -0.7
vt -27.5591 3.93701
vt -35.4331 0
f 88/81/1 90/117/1 89/118/1

v 1 0.8 -0.7
vt -27.5591 31.4961
f 88/81/1 91/119/1 90/117/1

v 1 0.8 -0.5
f 91/119/1 88/81/1 92/80/1

vt -39.3701 31.4961
f 88/57/6 55/45/6 92/120/6

f 55/45/6 88/57/6 54/44/6

f 52/57/2 54/64/2 88/115/2

f 53/8/2 54/64/2 52/57/2

f 88/115/2 81/110/2 52/57/2

vt -15.748 23.622
f 92/120/6 55/45/6 34/121/6

f 34/121/6 55/45/6 22/46/6

vt -3.93701 35.4331
f 23/122/6 34/121/6 22/46/6

vt -15.748 35.4331
f 34/121/6 23/122/6 33/123/6

f 23/122/6 56/68/6 33/123/6

f 22/46/6 56/68/6 23/122/6

vt -47.2441 39.3701
f 64/124/6 33/123/6 56/68/6

f 84/82/6 33/123/6 64/124/6

f 92/120/6 33/123/6 84/82/6

f 92/120/6 34/121/6 33/123/6

vt 39.3701 27.5591
vt 39.3701 19.685
f 84/78/4 91/125/4 92/126/4

v 1.4 0.8 -0.7
vt 55.1181 27.5591
f 91/125/4 84/78/4 93/127/4

vt 55.1181 19.685
f 93/127/4 84/78/4 85/128/4

v 1.4 0.1 -0.7
f 93/92/3 85/90/3 94/91/3

f 86/66/3 94/91/3 85/90/3

f 94/91/3 86/66/3 87/93/3

v 1.4 0.1 -0.9
f 94/91/3 87/93/3 95/94/3

v 1 0.1 -0.9
vt -39.3701 3.93701
vt -55.1181 3.93701
f 87/83/6 96/129/6 95/130/6

f 96/129/6 87/83/6 89/57/6

vt -35.4331 3.93701
f 89/118/1 90/117/1 96/131/1

vt 39.3701 35.4331
f 94/127/4 96/132/4 90/125/4

vt 55.1181 35.4331
f 96/132/4 94/127/4 95/133/4

f 91/120/6 94/130/6 90/129/6

f 94/130/6 91/120/6 93/85/6

f 65/68/3 66/2/3 82/6/3

vt -55.1181 -19.685
f 79/101/2 68/100/2 69/134/2

f 69/81/3 78/131/3 79/118/3

v 1.4 0.1 0.7
f 78/131/3 69/81/3 97/117/3

f 97/117/3 69/81/3 71/119/3

f 71/119/3 69/81/3 70/80/3

f 71/112/5 74/97/5 97/96/5

f 74/97/5 71/112/5 73/103/5

vt 55.1181 -35.4331
f 74/89/4 78/135/4 97/86/4

vt 39.3701 -35.4331
f 78/135/4 74/89/4 77/136/4

v 0 0.55 0.15
vt 5.90551 21.6535
f 61/75/1 56/71/1 98/137/1

f 98/137/1 56/71/1 59/73/1

v 0 0.55 -0.15
vt -5.90551 21.6535
f 59/73/1 56/71/1 99/138/1

v 0 0.55 -0.2
vt -7.87402 21.6535
f 99/138/1 56/71/1 100/139/1

f 100/139/1 56/71/1 57/70/1

vt 0 17.7165
v 0.05 0.55 -0.2
vt 1.9685 21.6535
vt 0 21.6535
f 57/140/5 101/141/5 100/142/5

v 0.05 0.45 -0.2
vt 1.9685 17.7165
f 101/141/5 57/140/5 102/143/5

v 0.05 0.45 -0.15
f 57/23/4 103/14/4 102/24/4

vt 0 5.90551
f 103/14/4 57/23/4 58/144/4

vt -1.9685 17.7165
f 99/142/6 103/145/6 58/140/6

v 0.05 0.55 -0.15
vt -1.9685 21.6535
f 103/145/6 99/142/6 104/146/6

f 99/144/2 101/28/2 104/40/2

f 101/28/2 99/144/2 100/23/2

f 101/139/1 103/72/1 104/138/1

f 103/72/1 101/139/1 102/70/1

f 58/72/1 59/73/1 99/138/1

v 0.05 0.55 0.15
f 59/140/5 105/141/5 98/142/5

v 0.05 0.45 0.15
f 105/141/5 59/140/5 106/143/5

vt 0 -5.90551
v 0.05 0.45 0.2
vt 1.9685 -7.87402
vt 1.9685 -5.90551
f 59/147/4 107/148/4 106/149/4

vt 0 -7.87402
f 107/148/4 59/147/4 60/150/4

f 61/142/6 107/145/6 60/140/6

v 0.05 0.55 0.2
f 107/145/6 61/142/6 108/146/6

vt -1.9685 -5.90551
vt -1.9685 -7.87402
f 61/150/2 105/151/2 108/152/2

f 105/151/2 61/150/2 98/147/2

f 105/137/1 107/74/1 108/75/1

f 107/74/1 105/137/1 106/73/1

