# Alias OBJ Model File
# Exported from SketchUp, (c) 2000-2012 Trimble Navigation Limited
# File units = meters

mtllib frog.mtl

g Mesh1 Model

usemtl FrontColor
v 0.1 0.9 0.5
vt 3.93701 35.4331
vn 0 0 1
v 0.1 0.6 0.5
vt 3.93701 23.622
v 0.4 0.6 0.5
vt 15.748 23.622
v 0.4 0.9 0.5
vt 15.748 35.4331
f 1/1/1 2/2/1 3/3/1 4/4/1 

usemtl Lisanne_Caulk
v 0.1 0.6 0.6
vt 23.622 23.622
vn -1 0 -0
v 0.1 0.9 0.6
vt 23.622 35.4331
vt 19.685 35.4331
vt 19.685 23.622
f 5/5/2 6/6/2 1/7/2 2/8/2 

v 0.15 0.65 0.6
vt 5.90551 25.5906
f 5/2/1 7/9/1 6/1/1

v 0.35 0.65 0.6
vt 13.7795 25.5906
f 7/9/1 5/2/1 8/10/1

v 0.4 0.6 0.6
f 9/3/1 8/10/1 5/2/1

v 0.4 0.9 0.6
f 8/10/1 9/3/1 10/4/1

vt -19.685 23.622
vn 1 0 -0
vt -19.685 35.4331
vt -23.622 35.4331
vt -23.622 23.622
f 3/11/3 4/12/3 10/13/3 9/14/3 

usemtl _2
v 1 0.8 0.5
vt 39.3701 31.4961
f 3/3/1 11/15/1 4/4/1

v 0 0.3 0.5
vt 0 11.811
f 12/16/1 11/15/1 3/3/1

v 0.8 0.3 0.5
vt 31.4961 11.811
f 13/17/1 11/15/1 12/16/1

v 0.8 0 0.5
vt 31.4961 0
f 14/18/1 11/15/1 13/17/1

v 1 0 0.5
vt 39.3701 0
f 11/15/1 14/18/1 15/19/1

v 0.8 0 0.6
vt -31.4961 -23.622
vn 0 -1 -0
v -0.1 0 0.6
vt 3.93701 -23.622
v -0.1 0 -0
vt 3.93701 0
v 1 0 -0
vt -39.3701 0
v 1.2 0 -0
vt -47.2441 0
v 1.2 0 0.5
vt -47.2441 -19.685
v 1.4 0 0.5
vt -55.1181 -19.685
v 1.4 0 0.9
vt -55.1181 -35.4331
v 1 0 0.9
vt -39.3701 -35.4331
vt -39.3701 -19.685
vt -31.4961 -19.685
f 16/20/4 17/21/4 18/22/4 19/23/4 20/24/4 21/25/4 22/26/4 23/27/4 24/28/4 15/29/4 14/30/4 

vt -3.93701 0
v 0.8 0.3 0.6
v -0.1 0.3 0.6
vt -3.93701 11.811
f 17/31/1 16/18/1 25/17/1 26/32/1 

vt -19.685 0
vt -19.685 11.811
vt -23.622 11.811
vt -23.622 0
f 14/33/3 13/34/3 25/35/3 16/36/3 

vt 31.4961 -19.685
vn 0 1 -0
vt 0 -19.685
v 0 0.3 -0.5
vt 0 19.685
v 0.8 0.3 -0.5
vt 31.4961 19.685
v 0.8 0.3 -0.6
vt 31.4961 23.622
v -0.1 0.3 -0.6
vt -3.93701 23.622
vt -3.93701 -23.622
vt 31.4961 -23.622
f 13/37/5 12/38/5 27/39/5 28/40/5 29/41/5 30/42/5 26/43/5 25/44/5 

vt 19.685 11.811
v 0 0.45 0.2
vt 7.87402 17.7165
f 12/45/2 31/46/2 27/34/2

v 0 0.55 0.2
vt 7.87402 21.6535
f 31/46/2 12/45/2 32/47/2

v 0 1 0.5
vt 19.685 39.3701
f 33/48/2 32/47/2 12/45/2

v 0 1 -0.5
vt -19.685 39.3701
f 32/47/2 33/48/2 34/49/2

v 1.2 1 0.5
vt 47.2441 -19.685
v 1.2 1 -0
vt 47.2441 0
v 1.2 1 -0.5
vt 47.2441 19.685
f 35/50/5 36/51/5 37/52/5 34/39/5 33/38/5 

v 1.2 0.8 0.5
vt -19.685 31.4961
vt 0 0
v 1.2 0.1 -0
vt 0 3.93701
vt 0 39.3701
f 35/49/3 38/53/3 21/33/3 20/54/3 39/55/3 36/56/3 

vt 47.2441 39.3701
vt 47.2441 31.4961
f 35/57/1 11/15/1 38/58/1

f 11/15/1 35/57/1 4/4/1

f 4/4/1 35/57/1 1/1/1

f 33/56/1 1/1/1 35/57/1

f 33/56/1 2/2/1 1/1/1

f 12/16/1 2/2/1 33/56/1

f 2/2/1 12/16/1 3/3/1

usemtl Lisanne_Caulk
vt -3.93701 -19.685
vt -15.748 -19.685
vt -15.748 -23.622
f 5/43/4 2/59/4 3/60/4 9/61/4 

vt 15.748 -23.622
vt 15.748 -19.685
vt 3.93701 -19.685
f 6/21/5 10/62/5 4/63/5 1/64/5 

v 0.25 0.85 0.6
vt 9.84252 33.4646
f 6/1/1 40/65/1 10/4/1

v 0.15 0.75 0.6
vt 5.90551 29.5276
f 6/1/1 41/66/1 40/65/1

f 6/1/1 7/9/1 41/66/1

usemtl _3
vt 23.622 29.5276
vt 23.622 25.5906
v 0.15 0.65 0.65
vt 25.5906 25.5906
v 0.15 0.75 0.65
vt 25.5906 29.5276
f 41/67/2 7/68/2 42/69/2 43/70/2 

vt -5.90551 -23.622
vt -13.7795 -23.622
v 0.35 0.65 0.65
vt -13.7795 -25.5906
vt -5.90551 -25.5906
f 7/71/4 8/72/4 44/73/4 42/74/4 

vt -23.622 25.5906
v 0.35 0.85 0.6
vt -23.622 33.4646
v 0.35 0.85 0.65
vt -25.5906 33.4646
vt -25.5906 25.5906
f 8/75/3 45/76/3 46/77/3 44/78/3 

usemtl Lisanne_Caulk
vt 13.7795 33.4646
f 8/10/1 10/4/1 45/79/1

f 45/79/1 10/4/1 40/65/1

usemtl _3
vt 13.7795 -23.622
vt 9.84252 -23.622
v 0.25 0.85 0.65
vt 9.84252 -25.5906
vt 13.7795 -25.5906
f 45/80/5 40/81/5 47/82/5 46/83/5 

vt 23.622 33.4646
v 0.25 0.75 0.6
v 0.25 0.75 0.65
vt 25.5906 33.4646
f 40/84/2 48/67/2 49/70/2 47/85/2 

usemtl Lisanne_Caulk
vt 9.84252 29.5276
f 40/65/1 41/66/1 48/86/1

usemtl _3
vt 5.90551 -23.622
vt 5.90551 -25.5906
f 48/81/5 41/87/5 43/88/5 49/82/5 

f 46/79/1 47/65/1 49/86/1 43/66/1 42/9/1 44/10/1 

usemtl _2
vt 39.3701 -19.685
v 1 0.8 0.7
vt 39.3701 -27.5591
v 1.4 0.8 0.7
vt 55.1181 -27.5591
v 1.4 0.8 0.5
vt 55.1181 -19.685
f 38/50/5 11/89/5 50/90/5 51/91/5 52/92/5 

vt 19.685 31.4961
vt 19.685 0
vt 35.4331 0
v 1 0.1 0.9
vt 35.4331 3.93701
v 1 0.1 0.7
vt 27.5591 3.93701
vt 27.5591 31.4961
f 11/93/2 15/94/2 24/95/2 53/96/2 54/97/2 50/98/2 

vt 55.1181 0
v 1.4 0.1 0.9
vt 55.1181 3.93701
vt 39.3701 3.93701
f 23/99/1 55/100/1 53/101/1 24/19/1 

vt -35.4331 0
vt -27.5591 31.4961
v 1.4 0.1 0.7
vt -27.5591 3.93701
vt -35.4331 3.93701
f 23/102/3 22/33/3 52/53/3 51/103/3 56/104/3 55/105/3 

vn 0 0 -1
vt -47.2441 31.4961
vt -55.1181 31.4961
vt -55.1181 0
f 21/24/6 38/106/6 52/107/6 22/108/6 

vt 55.1181 31.4961
f 50/15/1 54/101/1 56/100/1 51/109/1 

vt 39.3701 -35.4331
vt 55.1181 -35.4331
f 56/91/5 54/90/5 53/110/5 55/111/5 

vt 47.2441 3.93701
v 1 0.1 -0
f 19/19/1 20/51/1 39/112/1 57/101/1 

v -0.1 0 -0.6
v 0.8 0 -0.6
vt -31.4961 23.622
v 0.8 0 -0.5
vt -31.4961 19.685
v 1 0 -0.5
vt -39.3701 19.685
v 1 0 -0.9
vt -39.3701 35.4331
v 1.4 0 -0.9
vt -55.1181 35.4331
v 1.4 0 -0.5
vt -55.1181 19.685
v 1.2 0 -0.5
vt -47.2441 19.685
f 58/2/4 59/113/4 60/114/4 61/115/4 62/116/4 63/117/4 64/118/4 65/119/4 20/24/4 19/23/4 18/22/4 

vt -31.4961 0
vt 3.93701 11.811
vt -31.4961 11.811
f 59/120/6 58/22/6 30/121/6 29/122/6 

vt 23.622 11.811
vt 23.622 0
f 26/123/2 30/35/2 58/36/2 18/54/2 17/124/2 

f 28/45/3 60/94/3 59/124/3 29/123/3 

f 28/122/6 61/23/6 60/120/6

v 1 0.8 -0.5
vt -39.3701 31.4961
f 61/23/6 28/122/6 66/125/6

v 0.4 0.6 -0.5
vt -15.748 23.622
f 66/125/6 28/122/6 67/126/6

v 0.1 0.6 -0.5
f 67/126/6 28/122/6 68/42/6

f 27/16/6 68/42/6 28/122/6

f 68/42/6 27/16/6 34/56/6

v 0 0.45 -0.2
vt -7.87402 17.7165
f 27/34/2 69/127/2 34/49/2

v 0 0.45 -0.15
vt -5.90551 17.7165
f 27/34/2 70/128/2 69/127/2

v 0 0.45 0.15
vt 5.90551 17.7165
f 27/34/2 71/129/2 70/128/2

f 27/34/2 31/46/2 71/129/2

vt 0 -5.90551
vt 0 -7.87402
v 0.05 0.45 0.2
vt 1.9685 -7.87402
v 0.05 0.45 0.15
vt 1.9685 -5.90551
f 71/130/5 31/131/5 72/132/5 73/133/5 

vt 0 17.7165
vt 0 21.6535
v 0.05 0.55 0.2
vt -1.9685 21.6535
vt -1.9685 17.7165
f 31/134/6 32/135/6 74/136/6 72/137/6 

v 0 0.55 0.15
v 0.05 0.55 0.15
vt -1.9685 -5.90551
vt -1.9685 -7.87402
f 32/131/4 75/130/4 76/138/4 74/139/4 

vt 5.90551 21.6535
f 32/47/2 34/49/2 75/140/2

f 75/140/2 34/49/2 71/129/2

v 0 0.55 -0.15
vt -5.90551 21.6535
f 71/129/2 34/49/2 77/141/2

v 0 0.55 -0.2
vt -7.87402 21.6535
f 77/141/2 34/49/2 78/142/2

f 78/142/2 34/49/2 69/127/2

v 0.05 0.45 -0.2
vt 1.9685 17.7165
v 0.05 0.55 -0.2
vt 1.9685 21.6535
f 78/135/1 69/134/1 79/143/1 80/144/1 

vt 0 7.87402
vt 0 5.90551
v 0.05 0.45 -0.15
vt 1.9685 5.90551
vt 1.9685 7.87402
f 69/145/5 70/146/5 81/147/5 79/148/5 

v 0.05 0.55 -0.15
f 70/134/6 77/135/6 82/136/6 81/137/6 

f 70/128/2 71/129/2 77/141/2

vt -1.9685 7.87402
vt -1.9685 5.90551
f 77/146/4 78/145/4 80/149/4 82/150/4 

f 79/127/2 81/128/2 82/141/2 80/142/2 

f 75/135/1 71/134/1 73/143/1 76/144/1 

f 73/129/2 72/46/2 74/47/2 76/140/2 

v 0.1 0.9 -0.5
vt -3.93701 35.4331
f 68/42/6 34/56/6 83/151/6

v 0.4 0.9 -0.5
vt -15.748 35.4331
f 83/151/6 34/56/6 84/152/6

vt -47.2441 39.3701
f 37/153/6 84/152/6 34/56/6

v 1.2 0.8 -0.5
f 85/106/6 84/152/6 37/153/6

f 66/125/6 84/152/6 85/106/6

f 66/125/6 67/126/6 84/152/6

usemtl Lisanne_Caulk
v 0.4 0.6 -0.6
v 0.4 0.9 -0.6
f 84/7/3 67/8/3 86/5/3 87/6/3 

usemtl FrontColor
f 68/42/6 83/151/6 84/152/6 67/126/6 

usemtl Lisanne_Caulk
v 0.1 0.9 -0.6
v 0.1 0.6 -0.6
f 88/13/2 89/14/2 68/11/2 83/12/2 

v 0.15 0.65 -0.6
vt -5.90551 25.5906
f 90/154/6 89/42/6 88/151/6

f 89/42/6 90/154/6 86/126/6

v 0.35 0.65 -0.6
vt -13.7795 25.5906
f 91/155/6 86/126/6 90/154/6

f 86/126/6 91/155/6 87/152/6

v 0.35 0.85 -0.6
vt -13.7795 33.4646
f 87/152/6 91/155/6 92/156/6

usemtl _3
v 0.35 0.65 -0.65
v 0.35 0.85 -0.65
f 92/84/3 91/68/3 93/69/3 94/85/3 

vt -13.7795 23.622
vt -5.90551 23.622
v 0.15 0.65 -0.65
f 91/157/4 90/158/4 95/154/4 93/155/4 

v 0.15 0.75 -0.6
vt -23.622 29.5276
v 0.15 0.75 -0.65
vt -25.5906 29.5276
f 90/75/2 96/159/2 97/160/2 95/78/2 

usemtl Lisanne_Caulk
vt -5.90551 29.5276
f 90/154/6 88/151/6 96/161/6

v 0.25 0.75 -0.6
vt -9.84252 29.5276
f 96/161/6 88/151/6 98/162/6

v 0.25 0.85 -0.6
vt -9.84252 33.4646
f 98/162/6 88/151/6 99/163/6

f 99/163/6 88/151/6 92/156/6

f 87/152/6 92/156/6 88/151/6

vt 3.93701 19.685
vt 15.748 19.685
f 87/3/5 88/2/5 83/164/5 84/165/5 

usemtl _3
vt 9.84252 23.622
vt 13.7795 23.622
v 0.25 0.85 -0.65
vt 9.84252 25.5906
f 99/166/5 92/167/5 94/10/5 100/168/5 

v 0.25 0.75 -0.65
f 100/163/6 94/156/6 93/155/6 95/154/6 97/161/6 101/162/6 

vt 5.90551 23.622
f 96/169/5 98/166/5 101/168/5 97/9/5 

f 98/159/2 99/76/2 100/77/2 101/160/2 

usemtl Lisanne_Caulk
vt -3.93701 19.685
vt -15.748 19.685
f 68/170/4 89/42/4 86/126/4 67/171/4 

usemtl _2
vt 39.3701 19.685
v 1.4 0.8 -0.5
vt 55.1181 19.685
v 1.4 0.8 -0.7
vt 55.1181 27.5591
v 1 0.8 -0.7
vt 39.3701 27.5591
f 66/172/5 85/52/5 102/173/5 103/174/5 104/175/5 

f 85/58/1 65/51/1 64/99/1 102/109/1 

f 85/93/3 37/48/3 36/56/3 39/55/3 20/54/3 65/94/3 

v 1.4 0.1 -0.9
v 1.4 0.1 -0.7
f 64/94/3 63/95/3 105/96/3 106/97/3 103/98/3 102/93/3 

v 1 0.1 -0.9
vt -39.3701 3.93701
vt -55.1181 3.93701
f 63/108/6 62/23/6 107/176/6 105/177/6 

v 1 0.1 -0.7
f 61/33/2 66/53/2 104/103/2 108/104/2 107/105/2 62/102/2 

f 108/176/6 104/125/6 103/107/6 106/177/6 

vt 55.1181 35.4331
vt 39.3701 35.4331
f 108/175/5 106/174/5 105/178/5 107/179/5 

