# Alias OBJ Model File
# Exported from SketchUp, (c) 2000-2012 Trimble Navigation Limited
# File units = meters

mtllib goldfish-sign.mtl

g Mesh1 Group2 Group1 Model

usemtl _2
v -0.25 0.181858 -0.836921
vt 20.0787 7.10543e-15
vn 0 -1 -0
v -0.25 0.181858 -0.326921
vt 0 7.10543e-15
v -0.45 0.181858 -0.836921
vt 20.0787 7.87402
f 1/1/1 2/2/1 3/3/1

v -0.45 0.181858 -0.326921
vt 0 7.87402
f 4/4/1 3/3/1 2/2/1

vt 0 0
vn -1 0 -0
v -0.45 0.271858 -0.326921
vt 0 3.54331
vt 20.0787 0
f 4/5/2 5/6/2 3/7/2

vn 0 0 1
vt -3.54331 7.87402
f 4/4/3 2/2/3 5/8/3

v -0.25 0.271858 -0.326921
vt -3.54331 7.10543e-15
f 6/9/3 5/8/3 2/2/3

vn 0 1 -0
v -0.25 0.271858 -0.836921
vt -20.0787 7.10543e-15
f 6/2/4 7/10/4 5/4/4

v -0.45 0.271858 -0.836921
vt -20.0787 7.87402
f 8/11/4 5/4/4 7/10/4

vt 20.0787 3.54331
f 8/12/2 3/7/2 5/6/2

vt 3.54331 7.87402
vn 0 0 -1
vt 3.54331 7.10543e-15
f 8/13/5 7/14/5 3/4/5

f 1/2/5 3/4/5 7/14/5

g Mesh2 Group3 Group1 Model

usemtl Color_M09
v -0.25 0.674267 -0.127616
v -0.25 0.674267 -0.277616
vt -5.90551 7.10543e-15
v -0.3 0.674267 -0.127616
vt 0 1.9685
f 9/2/4 10/15/4 11/16/4

v -0.3 0.674267 -0.277616
vt -5.90551 1.9685
f 12/17/4 11/16/4 10/15/4

vt 5.90551 5.90551
v -0.3 0.524267 -0.277616
vt 5.90551 0
vt 0 5.90551
f 12/18/2 13/19/2 11/20/2

vt 5.90551 1.9685
vt 5.90551 7.10543e-15
f 12/21/5 10/22/5 13/16/5

v -0.25 0.524267 -0.277616
f 14/2/5 13/16/5 10/22/5

v -0.25 0.524267 -0.127616
f 14/22/1 15/2/1 13/21/1

v -0.3 0.524267 -0.127616
f 16/16/1 13/21/1 15/2/1

f 16/5/2 11/20/2 13/19/2

f 16/16/3 15/2/3 11/17/3

f 9/15/3 11/17/3 15/2/3

g Mesh3 Group4 Group1 Model

usemtl _2
v 0.45 0.181858 -0.836921
v 0.25 0.181858 -0.326921
v 0.25 0.181858 -0.836921
f 17/3/1 18/2/1 19/1/1

v 0.45 0.181858 -0.326921
f 18/2/1 17/3/1 20/4/1

vn 1 0 -0
v 0.45 0.271858 -0.326921
f 17/7/6 21/6/6 20/5/6

v 0.45 0.271858 -0.836921
f 21/6/6 17/7/6 22/12/6

v 0.25 0.271858 -0.836921
f 17/4/5 23/14/5 22/13/5

f 23/14/5 17/4/5 19/2/5

f 23/10/4 21/4/4 22/11/4

v 0.25 0.271858 -0.326921
f 21/4/4 23/10/4 24/2/4

f 18/2/3 21/8/3 24/9/3

f 21/8/3 18/2/3 20/4/3

g Mesh4 Group5 Group1 Model

usemtl Color_M09
v 0.3 0.674267 -0.127616
v 0.25 0.674267 -0.277616
v 0.25 0.674267 -0.127616
f 25/16/4 26/15/4 27/2/4

v 0.3 0.674267 -0.277616
f 26/15/4 25/16/4 28/17/4

v 0.3 0.524267 -0.277616
f 25/20/6 29/19/6 28/18/6

v 0.3 0.524267 -0.127616
f 29/19/6 25/20/6 30/5/6

v 0.25 0.524267 -0.127616
f 25/17/3 31/2/3 30/16/3

f 31/2/3 25/17/3 27/15/3

f 31/2/1 29/21/1 30/16/1

v 0.25 0.524267 -0.277616
f 29/21/1 31/2/1 32/22/1

f 26/22/5 29/16/5 32/2/5

f 29/16/5 26/22/5 28/21/5

g Mesh5 Group6 Group1 Model

usemtl _3
v 0.08 0 -1.34
vt 13.3858 0
v 0.08 0.39 -1
vt 0 15.3543
v 0.08 0 -1
f 33/23/6 34/24/6 35/5/6

v 0.08 0.39 -1.34
vt 13.3858 15.3543
f 34/24/6 33/23/6 36/25/6

vt -3.14961 0
v 0 0.39 -1.34
vt -3.14961 15.3543
f 33/26/5 37/24/5 36/27/5

v 0 0 -1.34
f 37/24/5 33/26/5 38/5/5

vt 0 13.3858
vt 3.14961 0
vt 3.14961 13.3858
f 37/28/4 34/29/4 36/30/4

v 0 0.39 -1
f 34/29/4 37/28/4 39/5/4

g Mesh6 Group7 Group1 Model

v -0.08 0 -1
v -0.08 0.39 -1
v -0.08 0 -1.34
f 40/5/2 41/24/2 42/23/2

v -0.08 0.39 -1.34
f 43/25/2 42/23/2 41/24/2

f 43/27/5 37/24/5 42/26/5

f 43/30/4 41/29/4 37/28/4

f 39/5/4 37/28/4 41/29/4

f 38/5/5 42/26/5 37/24/5

g Mesh7 Group1 Model

usemtl Color_B05
v -0.11 0.31808 -0.02
vt -13.3858 0.787402
v -0.12 0.31808 -0
vt -12.9921 0
v -0.12 0.31808 -0.02
vt -12.9921 0.787402
f 44/31/1 45/32/1 46/33/1

v -0.11 0.31808 -0
vt -13.3858 0
f 45/32/1 44/31/1 47/34/1

vt -0.787402 12.5228
v -0.11 0.25808 -0
vt 0 10.1606
vt 0 12.5228
f 44/35/2 48/36/2 47/37/2

v -0.11 0.25808 -0.02
vt -0.787402 10.1606
f 48/36/2 44/35/2 49/38/2

vt 12.9921 12.5228
vn 2.42614e-17 -4.37581e-19 1
vt 13.3858 10.1606
vt 13.3858 12.5228
f 46/39/7 49/40/7 44/41/7

v -0.12 0.24808 -0.02
vt 12.9921 9.76694
f 50/42/7 49/40/7 46/39/7

v 0 0.25808 -0.02
vt 17.7165 10.1606
f 50/42/7 51/43/7 49/40/7

v 0 0.24808 -0.02
vt 17.7165 9.76694
f 51/43/7 50/42/7 52/44/7

vt 12.9921 0.787402
v 0 0.24808 -0
vt 17.7165 0
vt 17.7165 0.787402
f 50/45/4 53/46/4 52/47/4

v -0.12 0.24808 -0
vt 12.9921 0
f 53/46/4 50/45/4 54/48/4

vt 0.787402 9.76694
vt 0 9.76694
f 50/49/6 45/37/6 54/50/6

vt 0.787402 12.5228
f 45/37/6 50/49/6 46/51/6

v -0.25 0.8 -0
vt 7.87402 31.4961
f 55/52/3 54/42/3 45/39/3

v -0.25 0 -0
vt 7.87402 0
f 56/53/3 54/42/3 55/52/3

f 56/53/3 53/44/3 54/42/3

v 0 0 -0
f 53/44/3 56/53/3 57/46/3

vt -7.87402 0
v -0.08 0 -1
vt -14.5669 39.3701
vt -17.7165 0
f 56/54/1 58/55/1 57/56/1

v -0.25 0 -1
vt -7.87402 39.3701
f 58/55/1 56/54/1 59/57/1

vt -12.8709 7.15975
vt -39.3701 0
f 56/5/2 2/58/2 59/59/2

vt -5.02426 20.6404
f 2/58/2 56/5/2 15/60/2

vt -5.02426 26.546
f 15/60/2 56/5/2 9/61/2

vt 0 31.4961
f 55/62/2 9/61/2 56/5/2

v -0.25 0.8 -1
vt -39.3701 31.4961
f 9/61/2 55/62/2 60/63/2

v 0 0.8 -0
vt 7.87402 39.3701
f 61/46/4 60/64/4 55/53/4

v 0 0.8 -1
vt 17.7165 39.3701
f 60/64/4 61/46/4 62/65/4

vt 0.787402 10.1606
vt 39.3701 31.4961
f 61/62/6 51/66/6 62/67/6

v 0 0.25808 -0
f 51/66/6 61/62/6 63/36/6

v 0.11 0.31808 -0
vt 22.0472 12.5228
vt 17.7165 31.4961
f 63/43/3 64/68/3 61/69/3

v 0.11 0.25808 -0
vt 22.0472 10.1606
f 64/68/3 63/43/3 65/70/3

v 0.11 0.25808 -0.02
vt -22.0472 0.787402
vt -22.0472 0
f 63/56/1 66/71/1 65/72/1

vt -17.7165 0.787402
f 66/71/1 63/56/1 51/73/1

f 48/34/1 51/73/1 63/56/1

f 51/73/1 48/34/1 49/31/1

f 61/69/3 48/40/3 63/43/3

f 48/40/3 61/69/3 47/41/3

f 47/41/3 61/69/3 45/39/3

f 55/52/3 45/39/3 61/69/3

f 51/43/3 52/44/3 66/70/3

vt 52.7559 0
f 52/49/6 38/74/6 51/66/6

f 53/50/6 38/74/6 52/49/6

f 38/74/6 53/50/6 57/5/6

v 0.12 0.24808 -0
vt 22.4409 9.76694
f 53/44/3 57/46/3 67/75/3

v 0.25 0 -0
vt 27.5591 0
f 68/76/3 67/75/3 57/46/3

v 0.25 0.8 -0
vt 27.5591 31.4961
f 67/75/3 68/76/3 69/77/3

vt 5.02426 20.6404
f 68/5/6 31/78/6 69/62/6

vt 12.8709 7.15975
f 31/78/6 68/5/6 18/79/6

v 0.25 0 -1
vt 39.3701 0
f 18/79/6 68/5/6 70/80/6

vt -27.5591 0
v 0.08 0 -1
vt -20.8661 39.3701
vt -27.5591 39.3701
f 68/81/1 71/82/1 70/83/1

f 57/56/1 71/82/1 68/81/1

v 0.08 0 -1.34
vt -20.8661 52.7559
f 57/56/1 72/84/1 71/82/1

vt -17.7165 52.7559
f 72/84/1 57/56/1 38/85/1

f 57/56/1 58/55/1 38/85/1

v -0.08 0 -1.34
vt -14.5669 52.7559
f 38/85/1 58/55/1 73/86/1

v 0.08 0.39 -1
vt -20.8661 15.3543
vt -20.8661 0
f 74/87/5 70/81/5 71/88/5

v 0.25 0.8 -1
vt -27.5591 31.4961
f 70/81/5 74/87/5 75/89/5

vt -17.7165 31.4961
f 75/89/5 74/87/5 62/90/5

vt -17.7165 15.3543
f 62/90/5 74/87/5 39/91/5

vt -7.87402 31.4961
f 39/91/5 60/92/5 62/90/5

v -0.08 0.39 -1
vt -14.5669 15.3543
f 76/93/5 60/92/5 39/91/5

vt -14.5669 0
f 58/94/5 60/92/5 76/93/5

f 60/92/5 58/94/5 59/54/5

vt -32.9496 7.15975
f 59/59/2 1/95/2 60/63/2

f 59/59/2 2/58/2 1/95/2

vt -32.9496 10.7031
f 7/96/2 60/63/2 1/95/2

vt -12.8709 10.7031
f 6/97/2 60/63/2 7/96/2

vt -10.9298 20.6404
f 14/98/2 60/63/2 6/97/2

vt -10.9298 26.546
f 10/99/2 60/63/2 14/98/2

f 9/61/2 60/63/2 10/99/2

f 2/58/2 14/98/2 6/97/2

f 2/58/2 15/60/2 14/98/2

vt 39.3701 15.3543
f 62/67/6 51/66/6 39/100/6

f 51/66/6 38/74/6 39/100/6

vt 52.7559 15.3543
f 39/100/6 38/74/6 37/101/6

vt 27.5591 39.3701
f 62/65/4 69/76/4 75/102/4

f 69/76/4 62/65/4 61/46/4

f 61/69/3 64/68/3 69/77/3

v 0.12 0.31808 -0
vt 22.4409 12.5228
f 77/103/3 69/77/3 64/68/3

f 67/75/3 69/77/3 77/103/3

v 0.12 0.31808 -0.02
f 78/35/2 67/50/2 77/37/2

v 0.12 0.24808 -0.02
vt -0.787402 9.76694
f 67/50/2 78/35/2 79/104/2

f 66/70/3 79/75/3 78/103/3

f 79/75/3 66/70/3 52/44/3

vt 22.4409 0
vt 22.4409 0.787402
f 52/47/4 67/105/4 79/106/4

f 67/105/4 52/47/4 53/46/4

v 0.11 0.31808 -0.02
f 66/70/3 78/103/3 80/68/3

vt -22.4409 0.787402
f 78/107/1 64/72/1 80/71/1

vt -22.4409 0
f 64/72/1 78/107/1 77/108/1

f 64/37/6 66/66/6 80/51/6

f 66/66/6 64/37/6 65/36/6

vt 5.02426 26.546
f 69/62/6 27/109/6 75/67/6

f 27/109/6 69/62/6 31/78/6

vt 10.9298 26.546
f 75/67/6 27/109/6 26/110/6

vt 12.8709 10.7031
f 75/67/6 26/110/6 24/111/6

f 24/111/6 26/110/6 18/79/6

vt 10.9298 20.6404
f 32/112/6 18/79/6 26/110/6

f 31/78/6 18/79/6 32/112/6

vt 32.9496 10.7031
f 75/67/6 24/111/6 23/113/6

f 75/67/6 23/113/6 70/80/6

vt 32.9496 7.15975
f 19/114/6 70/80/6 23/113/6

f 18/79/6 70/80/6 19/114/6

g Mesh8 Group8 Model

usemtl Color_C08
v 0.55 2.25186 -0.396921
vt 40.748 3.93701
v 0.45 2.25186 -0.496921
vt 36.811 7.87402
v 0.45 2.25186 -0.396921
vt 36.811 3.93701
f 81/115/4 82/116/4 83/117/4

v 0.55 2.25186 -0.496921
vt 40.748 7.87402
f 82/116/4 81/115/4 84/118/4

vt 3.93701 91.7323
vn 1 4.39932e-18 2.94857e-16
v 0.55 -0.0781424 -0.496921
vt 7.87402 -1.79263e-16
vt 7.87402 91.7323
f 81/119/8 85/120/8 84/121/8

v 0.55 1.49186 -0.396921
vt 3.93701 61.811
f 86/122/8 85/120/8 81/119/8

v 0.55 -0.0781424 -0.396921
vt 3.93701 -1.79263e-16
f 85/120/8 86/122/8 87/123/8

vt 40.748 61.811
v 0.45 -0.0781424 -0.396921
vt 36.811 0
vt 40.748 0
f 86/124/3 88/125/3 87/126/3

v 0.45 1.49186 -0.396921
vt 36.811 61.811
f 88/125/3 86/124/3 89/127/3

v 1.485 1.49186 -0.296921
vt -77.5591 0
vt -36.811 3.93701
vt -40.748 3.93701
f 90/128/1 89/129/1 86/130/1

v -0.485 1.49186 -0.296921
f 91/5/1 89/129/1 90/128/1

v -0.485 1.49186 -0.396921
vt 0 3.93701
f 89/129/1 91/5/1 92/131/1

vt 0 61.811
v -0.485 2.66186 -0.396921
vt -3.93701 107.874
vt -3.93701 61.811
f 91/132/2 93/133/2 92/134/2

v -0.485 2.66186 -0.296921
vt 0 107.874
f 93/133/2 91/132/2 94/135/2

v 1.485 2.66186 -0.296921
vt 77.5591 107.874
f 91/132/3 95/136/3 94/135/3

vt 77.5591 61.811
f 95/136/3 91/132/3 90/137/3

v 1.485 1.49186 -0.396921
f 96/122/6 95/135/6 90/132/6

v 1.485 2.66186 -0.396921
vt 3.93701 107.874
f 95/135/6 96/122/6 97/138/6

vt -77.5591 61.811
vt -40.748 91.7323
vt -77.5591 107.874
f 96/139/5 81/140/5 97/141/5

vt -40.748 61.811
f 81/140/5 96/139/5 86/142/5

vt -77.5591 3.93701
f 90/128/1 86/130/1 96/143/1

vt -36.811 91.7323
f 86/142/5 83/144/5 81/140/5

vt -36.811 61.811
f 83/144/5 86/142/5 89/145/5

f 89/145/5 93/135/5 83/144/5

f 93/135/5 89/145/5 92/132/5

f 83/144/5 93/135/5 81/140/5

f 97/141/5 81/140/5 93/135/5

vt 77.5591 0
vt 77.5591 3.93701
f 93/131/4 95/146/4 97/147/4

f 95/146/4 93/131/4 94/5/4

vt -7.87402 91.7323
vn -1 -4.39932e-18 -2.94857e-16
vt -3.93701 91.7323
f 82/148/9 89/134/9 83/149/9

vt -3.93701 -1.61943e-16
f 89/134/9 82/148/9 88/150/9

v 0.45 -0.0781424 -0.496921
vt -7.87402 -1.61943e-16
f 88/150/9 82/148/9 98/151/9

vt -40.748 0
vt -36.811 0
f 82/144/5 85/152/5 98/153/5

f 85/152/5 82/144/5 84/140/5

vt -40.748 7.87402
vt -36.811 7.87402
f 85/154/1 88/129/1 98/155/1

f 88/129/1 85/154/1 87/130/1

