# Alias OBJ Model File
# Exported from SketchUp, (c) 2000-2012 Trimble Navigation Limited
# File units = meters

mtllib lilypads-scene.mtl

g Mesh1 Group1 Model

usemtl _1
v 1.26849 1.12799e-17 -0.919865
vt 33.3853 3.93701
vn 0.134357 0 0.990933
v 0.557188 -0.1 -0.823422
vt 5.12514 0
v 1.26849 -0.1 -0.919865
vt 33.3853 0
f 1/1/1 2/2/1 3/3/1

v 0.557188 1.12799e-17 -0.823422
vt 5.12514 3.93701
f 2/2/1 1/1/1 4/4/1

vt 28.004 41.9426
vn 0 1 -0
v 1.08558 1.12799e-17 -1.94631
vt 20.8028 82.3539
vt 0 38.1456
f 1/5/2 5/6/2 4/7/2

v 2.21566 1.12799e-17 -2.1003
vt 65.2941 88.4166
f 5/6/2 1/5/2 6/8/2

v 2.28895 1.12799e-17 -0.00851618
vt 68.1796 6.06269
f 1/5/2 7/9/2 6/8/2

v 1.15887 1.12799e-17 0.145476
vt 23.6884 0
f 1/5/2 8/10/2 7/9/2

v 0.800016 1.12799e-17 -0.432393
vt 9.56019 22.7508
f 8/10/2 1/5/2 9/11/2

vt -49.6458 3.93701
vn -0.721018 0 -0.692916
v 0.800016 -0.1 -0.432393
vt -23.0281 0
vt -23.0281 3.93701
f 1/12/3 10/13/3 9/14/3

vt -49.6458 0
f 10/13/3 1/12/3 3/15/3

vt -28.004 41.9426
vn 0 -1 -0
v 1.15887 -0.1 0.145476
vt -23.6884 0
vt -9.56019 22.7508
f 3/16/4 11/17/4 10/18/4

v 2.28895 -0.1 -0.00851618
vt -68.1796 6.06269
f 11/17/4 3/16/4 12/19/4

v 2.21566 -0.1 -2.1003
vt -65.2941 88.4166
f 12/19/4 3/16/4 13/20/4

v 1.08558 -0.1 -1.94631
vt -20.8028 82.3539
f 3/16/4 14/21/4 13/20/4

f 14/21/4 3/16/4 2/7/4

vt -34.5152 0
vn -0.904827 0 -0.425779
vt -83.3734 3.93701
vt -83.3734 0
f 2/22/5 5/23/5 14/24/5

vt -34.5152 3.93701
f 5/23/5 2/22/5 4/25/5

vt -31.7317 3.93701
vn -0.135019 0 -0.990843
vt -76.6341 0
vt -31.7317 0
f 5/26/6 13/27/6 14/28/6

vt -76.6341 3.93701
f 13/27/6 5/26/6 6/29/6

v 2.81734 1.12799e-17 -1.13141
vt -4.23668 3.93701
vn 0.849522 0 -0.527553
vt 40.6657 0
vt 40.6657 3.93701
f 15/30/7 13/31/7 6/32/7

v 2.81734 -0.1 -1.13141
vt -4.23668 0
f 13/31/7 15/30/7 16/33/7

vt 34.5152 3.93701
vn 0.904827 0 0.425779
vt 83.3734 0
vt 83.3734 3.93701
f 7/34/8 16/35/8 15/36/8

vt 34.5152 0
f 16/35/8 7/34/8 12/37/8

vt 68.3739 3.93701
vn 0.135019 0 0.990843
vt 23.4715 0
vt 68.3739 0
f 7/38/9 11/39/9 12/40/9

vt 23.4715 3.93701
f 11/39/9 7/38/9 8/41/9

vt -14.2838 3.93701
vn -0.849522 0 0.527553
vt 12.4969 0
vt 12.4969 3.93701
f 9/42/10 11/43/10 8/44/10

vt -14.2838 0
f 11/43/10 9/42/10 10/45/10

vt -88.9825 50.271
f 12/19/4 13/20/4 16/46/4

vt 88.9825 50.271
f 6/8/2 7/9/2 15/47/2

g Mesh2 Group2 Model

usemtl _5
v 2.18401 0 1.64115
vt 58.9592 0
vn 0.965926 0 -0.258819
v 2.5052 0.1 2.83987
vt 10.1009 3.93701
v 2.5052 0 2.83987
vt 10.1009 0
f 17/48/11 18/49/11 19/50/11

v 2.18401 0.1 1.64115
vt 58.9592 3.93701
f 18/49/11 17/48/11 20/51/11

vt -44.4022 0
vn 0.308348 0 -0.951273
v 1.09906 0.1 1.28947
vt 0.500194 3.93701
vt -44.4022 3.93701
f 17/52/12 21/53/12 20/54/12

v 1.09906 0 1.28947
vt 0.500194 0
f 21/53/12 17/52/12 22/55/12

v 1.13754 0 2.80245
vt -31.584 34.8211
vt -30.069 94.3869
vt -72.7835 80.5413
f 23/56/4 22/57/4 17/58/4

v 0.656499 0 3.33522
vt -12.6455 13.8456
f 24/59/4 22/57/4 23/56/4

v 0.335305 0 2.13651
vt 0 61.0391
f 22/57/4 24/59/4 25/60/4

vt -10.1009 0
vn -0.965926 0 0.258819
v 0.335305 0.1 2.13651
vt -58.9592 3.93701
vt -58.9592 0
f 24/61/13 26/62/13 25/63/13

v 0.656499 0.1 3.33522
vt -10.1009 3.93701
f 26/62/13 24/61/13 27/64/13

vt 47.0111 0
vn 0.742227 0 0.670149
vt 18.7509 3.93701
vt 18.7509 0
f 23/65/14 27/66/14 24/67/14

v 1.13754 0.1 2.80245
vt 47.0111 3.93701
f 27/66/14 23/65/14 28/68/14

v 1.09436 0 3.47715
vt -10.1493 0
vn -0.997959 0 -0.0638597
vt -36.7669 3.93701
vt -36.7669 0
f 29/69/15 28/70/15 23/71/15

v 1.09436 0.1 3.47715
vt -10.1493 3.93701
f 28/70/15 29/69/15 30/72/15

vt 25.8818 0
vn -0.308348 0 0.951273
v 1.74145 0.1 3.6869
vt 52.6624 3.93701
vt 25.8818 3.93701
f 29/73/16 31/74/16 30/75/16

v 1.74145 0 3.6869
vt 52.6624 0
f 31/74/16 29/73/16 32/76/16

vt -55.3599 0
vt -29.8842 8.25777
f 32/77/4 29/78/4 23/56/4

f 23/56/4 17/58/4 32/77/4

vt -85.429 33.3479
f 32/77/4 17/58/4 19/79/4

vt 81.9743 0
vn 0.742674 0 0.669653
vt 37.0719 3.93701
vt 37.0719 0
f 19/80/17 31/81/17 32/82/17

vt 81.9743 3.93701
f 31/81/17 19/80/17 18/83/17

vt 72.7835 80.5413
vt 55.3599 0
vt 85.429 33.3479
f 20/84/2 31/85/2 18/86/2

vt 31.584 34.8211
f 20/84/2 28/87/2 31/85/2

vt 30.069 94.3869
f 21/88/2 28/87/2 20/84/2

vt 12.6455 13.8456
f 21/88/2 27/89/2 28/87/2

f 27/89/2 21/88/2 26/60/2

vt -90.2346 3.93701
vn -0.742674 0 -0.669653
vt -45.3321 0
vt -45.3321 3.93701
f 21/90/18 25/91/18 26/92/18

vt -90.2346 0
f 25/91/18 21/90/18 22/93/18

vt 29.8842 8.25777
f 31/85/2 28/87/2 30/94/2

g Mesh3 Group3 Model

usemtl _2
v -1.65757 0 -1.64813
vt -1.75534 3.93701
vn 0.353475 0 -0.935444
v -0.0673175 -0.1 -1.04722
vt -68.6845 0
v -1.65757 -0.1 -1.64813
vt -1.75534 0
f 33/95/19 34/96/19 35/97/19

v -0.0673175 0 -1.04722
vt -68.6845 3.93701
f 34/96/19 33/95/19 36/98/19

v -1.28037 0 0.651133
vt 66.6431 41.5766
vt 114.401 108.441
vt 51.7925 132.099
f 37/99/2 36/100/2 33/101/2

v -0.577197 0 1.27262
vt 94.3269 17.1085
f 36/100/2 37/99/2 38/102/2

v -1.28037 -0.1 0.651133
vt 22.4006 0
vn -0.662249 0 0.749284
vt 59.3476 3.93701
vt 22.4006 3.93701
f 39/103/20 38/104/20 37/105/20

v -0.577197 -0.1 1.27262
vt 59.3476 0
f 38/104/20 39/103/20 40/106/20

vt -66.6431 41.5766
vt -114.401 108.441
vt -94.3269 17.1085
f 39/107/4 34/108/4 40/109/4

vt -51.7925 132.099
f 34/108/4 39/107/4 35/110/4

v -1.10812 -0.1 1.70718
vt -73.4245 0
f 41/111/4 35/110/4 39/107/4

v -2.69837 -0.1 1.10627
vt -10.816 23.6578
f 42/112/4 35/110/4 41/111/4

v -2.9731 -0.1 -0.571384
vt 0 89.7072
f 35/110/4 42/112/4 43/113/4

vt -21.5989 0
vn -0.986856 0 0.161604
v -2.9731 0 -0.571384
vt -88.528 3.93701
vt -88.528 0
f 42/114/21 44/115/21 43/116/21

v -2.69837 0 1.10627
vt -21.5989 3.93701
f 44/115/21 42/114/21 45/117/21

vt 1.75534 0
vn -0.353475 0 0.935444
v -1.10812 0 1.70718
vt 68.6845 3.93701
vt 1.75534 3.93701
f 42/118/22 46/119/22 45/120/22

vt 68.6845 0
f 46/119/22 42/118/22 41/121/22

vt 30.3062 0
vn 0.986958 0 -0.160979
vt -11.8198 3.93701
vt -11.8198 0
f 39/122/23 46/123/23 41/124/23

vt 30.3062 3.93701
f 46/123/23 39/122/23 37/125/23

vt 73.4245 0
f 33/101/2 46/126/2 37/99/2

vt 10.816 23.6578
f 33/101/2 45/127/2 46/126/2

f 45/127/2 33/101/2 44/113/2

vt -123.748 0
vn -0.633381 0 -0.77384
vt -56.8188 3.93701
vt -123.748 3.93701
f 35/128/24 44/129/24 33/130/24

vt -56.8188 0
f 44/129/24 35/128/24 43/131/24

v 0.207409 -0.1 0.63043
vt -125.217 42.3916
f 40/109/4 34/108/4 47/132/4

vt 88.528 0
vn 0.986856 0 -0.161604
v 0.207409 0 0.63043
vt 21.5989 3.93701
vt 21.5989 0
f 34/133/25 48/134/25 47/135/25

vt 88.528 3.93701
f 48/134/25 34/133/25 36/136/25

vt 125.217 42.3916
f 36/100/2 38/102/2 48/137/2

vt 83.8301 0
vn 0.633381 0 0.77384
vt 123.748 3.93701
vt 83.8301 3.93701
f 40/138/26 48/139/26 38/140/26

vt 123.748 0
f 48/139/26 40/138/26 47/141/26

