# Alias OBJ Model File
# Exported from SketchUp, (c) 2000-2012 Trimble Navigation Limited
# File units = meters

mtllib lilypads-scene.mtl

g Mesh1 Group1 Model

usemtl _5
v -2.9731 0 -0.571384
vt 16.7323 3.93701
vn -0.633381 0 -0.77384
v -1.65757 -0.1 -1.64813
vt -50.1969 0
v -2.9731 -0.1 -0.571384
vt 16.7323 0
f 1/1/1 2/2/1 3/3/1

v -1.65757 0 -1.64813
vt -50.1969 3.93701
f 2/2/1 1/1/1 4/4/1

vt 57.9623 133.858
vn 0 1 -0
v -0.0673175 0 -1.04722
vt 115.925 33.4646
vt 115.925 100.394
f 1/5/2 5/6/2 4/7/2

v 0.207409 0 0.63043
vt 57.9623 0
f 1/5/2 6/8/2 5/6/2

v -1.28037 0 0.651133
vt 36.4955 54.5044
f 1/5/2 7/9/2 6/8/2

v -2.69837 0 1.10627
vt 1.42109e-14 100.394
f 8/10/2 7/9/2 1/5/2

v -1.10812 0 1.70718
vt 0 33.4646
f 7/9/2 8/10/2 9/11/2

vt -100.394 3.93701
vn -0.353475 0 0.935444
v -1.10812 -0.1 1.70718
vt -33.4646 0
vt -33.4646 3.93701
f 8/12/3 10/13/3 9/14/3

v -2.69837 -0.1 1.10627
vt -100.394 0
f 10/13/3 8/12/3 11/15/3

vn -0.986856 0 0.161604
vt -117.126 0
f 8/4/4 3/16/4 11/2/4

vt -117.126 3.93701
f 3/16/4 8/4/4 1/17/4

v -1.28037 -0.1 0.651133
vt -36.4955 54.5044
vn 0 -1 -0
vt -1.42109e-14 100.394
vt -57.9623 133.858
f 12/18/5 11/19/5 3/20/5

f 11/19/5 12/18/5 10/11/5

vt 58.8399 3.93701
vn 0.986958 0 -0.160979
vt 16.7139 0
vt 58.8399 0
f 7/21/6 10/22/6 12/23/6

vt 16.7139 3.93701
f 10/22/6 7/21/6 9/24/6

v -0.577197 -0.1 1.27262
vt -26.9576 0
vn -0.662249 0 0.749284
vt -63.9046 3.93701
vt -63.9046 0
f 13/25/7 7/26/7 12/27/7

v -0.577197 0 1.27262
vt -26.9576 3.93701
f 7/26/7 13/25/7 14/28/7

vt 10.279 0
vn 0.633381 0 0.77384
vt 50.1969 3.93701
vt 10.279 3.93701
f 13/29/8 6/30/8 14/31/8

v 0.207409 -0.1 0.63043
vt 50.1969 0
f 6/30/8 13/29/8 15/32/8

vt -57.9623 0
vt -23.3925 19.9589
f 15/33/5 13/34/5 12/18/5

f 12/18/5 3/20/5 15/33/5

v -0.0673175 -0.1 -1.04722
vt -115.925 33.4646
f 15/33/5 3/20/5 16/35/5

vt -115.925 100.394
f 16/35/5 3/20/5 2/36/5

vt 100.394 0
vn 0.353475 0 -0.935444
vt 33.4646 3.93701
vt 33.4646 0
f 2/37/9 5/38/9 16/39/9

vt 100.394 3.93701
f 5/38/9 2/37/9 4/40/9

vt 117.126 3.93701
vn 0.986856 0 -0.161604
vt 117.126 0
f 5/41/10 15/32/10 16/42/10

f 15/32/10 5/41/10 6/30/10

vt 23.3925 19.9589
f 6/8/2 7/9/2 14/43/2

g Mesh2 Group2 Model

v 2.21566 1.12799e-17 -2.1003
vn 0.792361 0 -0.610052
v 2.81734 -0.1 -1.13141
v 2.21566 -0.1 -2.1003
f 17/1/11 18/2/11 19/3/11

v 2.81734 1.12799e-17 -1.13141
f 18/2/11 17/1/11 20/4/11

v 2.28895 1.12799e-17 -0.00851618
f 17/5/2 21/6/2 20/7/2

v 1.15887 1.12799e-17 0.145476
f 17/5/2 22/8/2 21/6/2

v 1.26849 1.12799e-17 -0.919865
f 17/5/2 23/9/2 22/8/2

v 1.08558 1.12799e-17 -1.94631
f 24/10/2 23/9/2 17/5/2

v 0.557188 1.12799e-17 -0.823422
f 23/9/2 24/10/2 25/11/2

vn -0.904827 0 -0.425779
v 0.557188 -0.1 -0.823422
f 24/12/12 26/13/12 25/14/12

v 1.08558 -0.1 -1.94631
f 26/13/12 24/12/12 27/15/12

vn -0.0350171 0 -0.999387
f 24/4/13 19/16/13 27/2/13

f 19/16/13 24/4/13 17/17/13

v 1.26849 -0.1 -0.919865
f 28/18/5 27/19/5 19/20/5

f 27/19/5 28/18/5 26/11/5

vn 0.0344226 0 0.999407
f 23/21/14 26/22/14 28/23/14

f 26/22/14 23/21/14 25/24/14

v 0.800016 -0.1 -0.432393
vn -0.665582 0 -0.746325
f 29/25/15 23/26/15 28/27/15

v 0.800016 1.12799e-17 -0.432393
f 23/26/15 29/25/15 30/28/15

vn -0.792361 0 0.610052
f 29/29/16 22/30/16 30/31/16

v 1.15887 -0.1 0.145476
f 22/30/16 29/29/16 31/32/16

f 31/33/5 29/34/5 28/18/5

f 28/18/5 19/20/5 31/33/5

v 2.28895 -0.1 -0.00851618
f 31/33/5 19/20/5 32/35/5

f 32/35/5 19/20/5 18/36/5

vn 0.904827 0 0.425779
f 18/37/17 21/38/17 32/39/17

f 21/38/17 18/37/17 20/40/17

vn 0.0350171 0 0.999387
f 21/41/18 31/32/18 32/42/18

f 31/32/18 21/41/18 22/30/18

f 22/8/2 23/9/2 30/43/2

g Mesh3 Group3 Model

v 1.09906 0.1 1.28947
vn 0.21144 0 -0.977391
v 2.18401 0 1.64115
v 1.09906 0 1.28947
f 33/1/19 34/2/19 35/3/19

v 2.18401 0.1 1.64115
f 34/2/19 33/1/19 36/4/19

v 2.5052 0.1 2.83987
f 33/5/2 37/6/2 36/7/2

v 1.74145 0.1 3.6869
f 33/5/2 38/8/2 37/6/2

v 1.13754 0.1 2.80245
f 33/5/2 39/9/2 38/8/2

v 0.335305 0.1 2.13651
f 40/10/2 39/9/2 33/5/2

v 0.656499 0.1 3.33522
f 39/9/2 40/10/2 41/11/2

vn -0.965926 0 0.258819
v 0.656499 0 3.33522
f 40/12/20 42/13/20 41/14/20

v 0.335305 0 2.13651
f 42/13/20 40/12/20 43/15/20

vn -0.671808 0 -0.740726
f 40/4/21 35/16/21 43/2/21

f 35/16/21 40/4/21 33/17/21

v 1.13754 0 2.80245
f 44/18/5 43/19/5 35/20/5

f 43/19/5 44/18/5 42/11/5

vn 0.671367 0 0.741125
f 39/21/22 42/22/22 44/23/22

f 42/22/22 39/21/22 41/24/22

v 1.09436 0 3.47715
vn -0.99009 0 -0.140435
f 45/25/23 39/26/23 44/27/23

v 1.09436 0.1 3.47715
f 39/26/23 45/25/23 46/28/23

vn -0.21144 0 0.977391
f 45/29/24 38/30/24 46/31/24

v 1.74145 0 3.6869
f 38/30/24 45/29/24 47/32/24

f 47/33/5 45/34/5 44/18/5

f 44/18/5 35/20/5 47/33/5

v 2.5052 0 2.83987
f 47/33/5 35/20/5 48/35/5

f 48/35/5 35/20/5 34/36/5

vn 0.965926 0 -0.258819
f 34/37/25 37/38/25 48/39/25

f 37/38/25 34/37/25 36/40/25

vn 0.671808 0 0.740726
f 37/41/26 47/32/26 48/42/26

f 47/32/26 37/41/26 38/30/26

f 38/8/2 39/9/2 46/43/2

