# Alias OBJ Model File
# Exported from SketchUp, (c) 2000-2012 Trimble Navigation Limited
# File units = meters

mtllib turtle.mtl

g Mesh1 Group1 Model

usemtl Color_M08
v 0.370824 0.151119 0.154922
vt 0 0.393701
vn 0 1 -0
v 0.360824 0.151119 0.134922
vt -0.787402 1.77636e-15
v 0.360824 0.151119 0.154922
vt 0 1.77636e-15
f 1/1/1 2/2/1 3/3/1

v 0.370824 0.151119 0.134922
vt -0.787402 0.393701
f 2/2/1 1/1/1 4/4/1

vt 0 1.27404
vn 1 0 -0
v 0.370824 0.118758 0.134922
vt 0.787402 0
vt 0.787402 1.27404
f 1/5/2 5/6/2 4/7/2

v 0.370824 0.118758 0.154922
vt 0 0
f 5/6/2 1/5/2 6/8/2

vt -1.27404 0.393701
vn 0 0 1
v 0.360824 0.118758 0.154922
f 1/9/3 7/3/3 6/1/3

vt -1.27404 1.77636e-15
f 7/3/3 1/9/3 3/10/3

vn 0 -1 -0
vt 0.787402 0.393701
f 7/3/4 5/11/4 6/1/4

v 0.360824 0.118758 0.134922
vt 0.787402 1.77636e-15
f 5/11/4 7/3/4 8/12/4

vt 1.27404 1.77636e-15
vn 0 0 -1
f 2/13/5 5/1/5 8/3/5

vt 1.27404 0.393701
f 5/1/5 2/13/5 4/14/5

g Mesh2 Group2 Model

v 0.139176 0.151119 0.154922
v 0.139176 0.151119 0.134922
v 0.129176 0.151119 0.154922
f 9/3/1 10/2/1 11/1/1

v 0.129176 0.151119 0.134922
f 12/4/1 11/1/1 10/2/1

vn -1 0 -0
v 0.129176 0.118758 0.134922
f 12/7/6 13/6/6 11/5/6

f 12/14/5 10/13/5 13/1/5

v 0.139176 0.118758 0.134922
f 14/3/5 13/1/5 10/13/5

v 0.139176 0.118758 0.154922
f 14/12/4 15/3/4 13/11/4

v 0.129176 0.118758 0.154922
f 16/1/4 13/11/4 15/3/4

f 16/8/6 11/5/6 13/6/6

f 16/1/3 15/3/3 11/9/3

f 9/10/3 11/9/3 15/3/3

g Mesh3 Group3 Model

usemtl Color_F06
v 0.25 0.175138 0.19
vt 4.36315 0
v 0.139176 0.175138 -2.25597e-17
vt 0 7.48031
v 0.139176 0.175138 0.19
f 17/15/1 18/16/1 19/8/1

v 0.25 0.175138 -0
vt 4.36315 7.48031
f 18/16/1 17/15/1 20/17/1

vt 0 4.72441
v 0.25 0.0551383 -0
vt 7.48031 0
vt 7.48031 4.72441
f 17/18/2 21/19/2 20/20/2

v 0.25 0.0551383 0.19
f 21/19/2 17/18/2 22/8/2

vt 4.36315 4.72441
v 0.139176 0.0551383 0.19
f 17/21/3 23/8/3 22/15/3

f 23/8/3 17/21/3 19/18/3

vt -7.48031 4.72441
f 18/22/6 23/8/6 19/18/6

v 0.139176 0.0551383 -2.25597e-17
vt -7.48031 0
f 23/8/6 18/22/6 24/23/6

vt -4.36315 7.48031
f 21/24/4 23/8/4 24/16/4

vt -4.36315 0
f 23/8/4 21/24/4 22/25/4

v 0.360824 0.0551383 -0
vt -8.7263 7.48031
f 25/26/4 22/25/4 21/24/4

v 0.360824 0.0551383 0.19
vt -8.7263 0
f 22/25/4 25/26/4 26/27/4

v 0.360824 0.175138 0.19
f 25/19/2 27/18/2 26/8/2

v 0.360824 0.175138 -0
f 27/18/2 25/19/2 28/20/2

vt 8.7263 0
vt 8.7263 7.48031
f 20/17/1 27/28/1 28/29/1

f 27/28/1 20/17/1 17/15/1

vt 8.7263 4.72441
f 22/15/3 27/30/3 17/21/3

f 27/30/3 22/15/3 26/28/3

g Mesh4 Group4 Model

usemtl Color_F06
v 0 0.06 -0.0762009
vt 3.93701 2.3622
v -0.1 0 -0.0762009
v 0 0 -0.0762009
vt 3.93701 0
f 29/31/3 30/8/3 31/32/3

v -0.1 0.06 -0.0762009
vt 0 2.3622
f 30/8/3 29/31/3 32/33/3

v -0.1 0.06 -0.186201
vt 0 4.33071
f 29/32/1 33/34/1 32/8/1

v 0 0.06 -0.186201
vt 3.93701 4.33071
f 33/34/1 29/32/1 34/35/1

vt -4.33071 2.3622
f 34/36/6 31/8/6 29/33/6

v 0 0 -0.186201
vt -4.33071 0
f 31/8/6 34/36/6 35/37/6

vt -3.93701 0
vt -3.93701 2.3622
f 35/38/5 33/33/5 34/39/5

v -0.1 0 -0.186201
f 33/33/5 35/38/5 36/8/5

vt -3.93701 4.33071
f 35/40/4 30/8/4 36/34/4

f 30/8/4 35/40/4 31/38/4

f 30/8/6 33/36/6 36/37/6

f 33/36/6 30/8/6 32/33/6

g Mesh5 Group4 Model

usemtl Color_F06
v 0.6 0 -0.186201
vt 4.33071 0
v 0.6 0.06 -0.0762009
v 0.6 0 -0.0762009
f 37/41/2 38/33/2 39/8/2

v 0.6 0.06 -0.186201
vt 4.33071 2.3622
f 38/33/2 37/41/2 40/42/2

vt -27.5591 0
v 0.5 0.06 -0.186201
vt -23.622 2.3622
vt -27.5591 2.3622
f 37/43/5 41/44/5 40/45/5

v 0.5 0 -0.186201
vt -23.622 0
f 41/44/5 37/43/5 42/46/5

vt -27.5591 4.33071
v 0.5 0 -0.0762009
vt -23.622 4.33071
f 37/47/4 43/46/4 42/48/4

f 43/46/4 37/47/4 39/43/4

vt 27.5591 2.3622
vt 23.622 0
vt 27.5591 0
f 38/49/3 43/50/3 39/51/3

v 0.5 0.06 -0.0762009
vt 23.622 2.3622
f 43/50/3 38/49/3 44/52/3

vt 23.622 4.33071
f 38/51/1 41/53/1 44/50/1

vt 27.5591 4.33071
f 41/53/1 38/51/1 40/54/1

f 44/33/2 42/41/2 41/42/2

f 42/41/2 44/33/2 43/8/2

g Mesh6 Group5 Model

usemtl Color_F06
v 0.5 0.06 -0.425906
v 0.6 0 -0.425906
v 0.5 0 -0.425906
f 45/44/5 46/43/5 47/46/5

v 0.6 0.06 -0.425906
f 46/43/5 45/44/5 48/45/5

v 0.6 0.06 -0.315906
f 45/53/1 49/51/1 48/54/1

v 0.5 0.06 -0.315906
f 49/51/1 45/53/1 50/50/1

f 50/33/2 47/41/2 45/42/2

v 0.5 0 -0.315906
f 47/41/2 50/33/2 51/8/2

f 51/50/3 49/49/3 50/52/3

v 0.6 0 -0.315906
f 49/49/3 51/50/3 52/51/3

f 51/46/4 46/47/4 52/43/4

f 46/47/4 51/46/4 47/48/4

f 46/41/2 49/33/2 52/8/2

f 49/33/2 46/41/2 48/42/2

g Mesh7 Group5 Model

usemtl Color_F06
v 0 0.06 -0.315906
v -0.1 0 -0.315906
v 0 0 -0.315906
f 53/31/3 54/8/3 55/32/3

v -0.1 0.06 -0.315906
f 54/8/3 53/31/3 56/33/3

v -0.1 0.06 -0.425906
f 53/32/1 57/34/1 56/8/1

v 0 0.06 -0.425906
f 57/34/1 53/32/1 58/35/1

f 58/36/6 55/8/6 53/33/6

v 0 0 -0.425906
f 55/8/6 58/36/6 59/37/6

f 59/38/5 57/33/5 58/39/5

v -0.1 0 -0.425906
f 57/33/5 59/38/5 60/8/5

f 59/40/4 54/8/4 60/34/4

f 54/8/4 59/40/4 55/38/4

f 54/8/6 57/36/6 60/37/6

f 57/36/6 54/8/6 56/33/6

g Mesh8 Group6 Model

usemtl Color_F06
v 0.22 0.048541 -0.5
vt 0 1.91106
v 0.25 0 -0.5
vt -1.1811 0
v 0.22 0 -0.5
f 61/55/5 62/56/5 63/8/5

v 0.25 0.048541 -0.5
vt -1.1811 1.91106
f 62/56/5 61/55/5 64/57/5

vt 1.1811 0
vn -1.87998e-16 1 -0
v 0.22 0.048541 -0.59
vt 3.59276e-16 3.54331
vt 3.59276e-16 0
f 64/58/7 65/59/7 61/60/7

v 0.25 0.048541 -0.59
vt 1.1811 3.54331
f 65/59/7 64/58/7 66/61/7

v 0.25 0 -0.59
vt 3.54331 0
vt 3.54331 1.91106
f 64/55/2 67/62/2 66/63/2

f 67/62/2 64/55/2 62/8/2

v 0.28 0 -0.5
vt -2.3622 0
f 64/57/5 68/64/5 62/56/5

v 0.28 0.048541 -0.5
vt -2.3622 1.91106
f 68/64/5 64/57/5 69/65/5

vt 2.3622 0
f 69/66/1 66/61/1 64/58/1

v 0.28 0.048541 -0.59
vt 2.3622 3.54331
f 66/61/1 69/66/1 70/67/1

v 0.28 0 -0.59
f 69/55/2 71/62/2 70/63/2

f 71/62/2 69/55/2 68/8/2

vt -2.3622 3.54331
f 62/56/4 71/68/4 68/64/4

vt -1.1811 3.54331
f 71/68/4 62/56/4 67/69/4

f 63/8/4 67/69/4 62/56/4

v 0.22 0 -0.59
vt 0 3.54331
f 67/69/4 63/8/4 72/70/4

vt -3.54331 1.91106
vt -3.54331 0
f 63/8/6 65/71/6 72/72/6

f 65/71/6 63/8/6 61/55/6

f 65/55/5 67/56/5 72/8/5

f 67/56/5 65/55/5 66/57/5

f 66/57/5 71/64/5 67/56/5

f 71/64/5 66/57/5 70/65/5

g Mesh9 Model

usemtl Color_C07
v 0.25 0.5 -0.5
vt -9.84252 19.685
vt -11.0236 1.91106
vt -9.84252 1.91106
f 73/73/5 69/74/5 64/75/5

v 0.5 0.5 -0.5
vt -19.685 19.685
f 74/76/5 69/74/5 73/73/5

v 0.5 0 -0.5
vt -19.685 0
f 75/77/5 69/74/5 74/76/5

vt -11.0236 0
f 69/74/5 75/77/5 68/78/5

v 0.5 0 -0
vt -11.0236 19.685
f 76/77/4 68/79/4 75/76/4

v 0.25 0 -0
vt -9.84252 0
f 77/80/4 68/79/4 76/77/4

f 68/79/4 77/80/4 62/73/4

vt 19.685 0
vt 0 2.1708
f 62/81/2 21/82/2 77/8/2

vt 0 6.89521
f 21/82/2 62/81/2 20/83/2

v 0.25 0.5 -0
vt 0 19.685
f 20/83/2 62/81/2 78/84/2

vt 19.685 19.685
f 78/84/2 62/81/2 73/85/2

vt 19.685 1.91106
f 73/85/2 62/81/2 64/86/2

v 0 0.5 -0.5
f 64/75/5 79/84/5 73/73/5

vt -8.66142 1.91106
f 61/87/5 79/84/5 64/75/5

vt -8.66142 0
f 63/88/5 79/84/5 61/87/5

v 0 0 -0.5
f 79/84/5 63/88/5 80/8/5

vt -8.66142 19.685
vt 0 16.7679
f 63/89/4 59/90/4 80/84/4

vt 0 12.4372
f 59/90/4 63/89/4 55/91/4

vt 0 7.33075
f 55/91/4 63/89/4 35/92/4

vt 0 3.00004
f 35/92/4 63/89/4 31/93/4

v 0 0 -2.25597e-17
vt 0 8.88178e-16
f 31/93/4 63/89/4 81/94/4

f 81/94/4 63/89/4 77/80/4

f 77/80/4 63/89/4 62/73/4

vt 9.84252 2.1708
vn -9.77253e-17 -6.09843e-18 1
vt -8.67975e-32 -5.41649e-33
vt 9.84252 -5.86585e-33
f 21/95/8 81/96/8 77/97/8

vt 5.47937 2.1708
f 81/96/8 21/95/8 24/98/8

v 0 0.5 -2.25597e-17
vt -8.67975e-32 19.685
f 81/96/8 24/98/8 82/99/8

vt 5.47937 6.89521
f 82/99/8 24/98/8 18/100/8

vt 9.84252 19.685
f 82/99/8 18/100/8 78/101/8

vt 9.84252 6.89521
f 78/101/8 18/100/8 20/102/8

v 0.5 0.5 -0
f 20/102/3 83/85/3 78/101/3

vt 14.2057 6.89521
f 28/103/3 83/85/3 20/102/3

vt 14.2057 2.1708
f 25/104/3 83/85/3 28/103/3

f 25/104/3 76/81/3 83/85/3

vt 9.84252 0
f 76/81/3 25/104/3 77/105/3

f 21/95/3 77/105/3 25/104/3

vt 3.00004 0
f 43/106/2 83/84/2 76/8/2

vt 3.00004 2.3622
f 83/84/2 43/106/2 44/107/2

f 83/84/2 44/107/2 74/85/2

vt 7.33075 2.3622
f 74/85/2 44/107/2 41/108/2

vt 12.4372 2.3622
f 74/85/2 41/108/2 50/109/2

vt 12.4372 0
f 50/109/2 41/108/2 51/110/2

vt 7.33075 0
f 51/110/2 41/108/2 42/111/2

vt -19.685 12.4372
vt -19.685 7.33075
f 76/77/4 51/112/4 42/113/4

vt -19.685 16.7679
f 76/77/4 47/114/4 51/112/4

f 76/77/4 75/76/4 47/114/4

vt 16.7679 2.3622
vt 16.7679 0
f 75/81/2 45/115/2 47/116/2

f 74/85/2 45/115/2 75/81/2

f 74/85/2 50/109/2 45/115/2

vt -19.685 3.00004
f 76/77/4 42/113/4 43/117/4

f 73/101/1 83/81/1 74/85/1

f 83/81/1 73/101/1 78/105/1

f 79/84/1 78/105/1 73/101/1

f 78/105/1 79/84/1 82/94/1

vt -8.88178e-16 0
vt -8.88178e-16 19.685
f 79/76/6 81/118/6 82/119/6

vt -3.00004 2.3622
f 81/118/6 79/76/6 29/120/6

vt -7.33075 2.3622
f 29/120/6 79/76/6 34/121/6

vt -7.33075 0
f 34/121/6 79/76/6 35/122/6

vt -12.4372 2.3622
f 35/122/6 79/76/6 53/123/6

vt -16.7679 2.3622
f 53/123/6 79/76/6 58/124/6

vt -16.7679 0
f 58/124/6 79/76/6 59/125/6

f 59/125/6 79/76/6 80/77/6

vt -12.4372 0
f 55/126/6 35/122/6 53/123/6

vt -3.00004 0
f 31/127/6 81/118/6 29/120/6
